<?xml version="1.0" standalone="no"?>
<!DOCTYPE svg PUBLIC "-//W3C//DTD SVG 20010904//EN"
 "http://www.w3.org/TR/2001/REC-SVG-20010904/DTD/svg10.dtd">
<svg version="1.0" xmlns="http://www.w3.org/2000/svg"
 width="690.000000pt" height="613.000000pt" viewBox="0 0 690.000000 613.000000"
 preserveAspectRatio="xMidYMid meet">

<g transform="translate(0.000000,613.000000) scale(0.100000,-0.100000)"
fill="#000000" stroke="none">
<path d="M4765 5479 c-74 -8 -105 -20 -157 -61 -35 -29 -78 -88 -63 -88 3 0
22 19 43 42 50 55 125 88 203 88 107 0 220 -56 235 -117 4 -13 10 -23 14 -23
13 0 -3 44 -25 71 -56 67 -146 99 -250 88z"/>
<path d="M1680 5304 c-90 -42 -131 -95 -128 -168 1 -18 -6 -44 -15 -57 -34
-47 -18 -110 42 -167 36 -34 39 -42 46 -111 6 -56 4 -75 -6 -82 -10 -6 -7 -13
14 -29 16 -13 27 -31 27 -46 0 -13 5 -24 11 -24 6 0 8 8 5 18 -19 63 -35 136
-30 143 3 5 12 9 20 9 19 0 18 6 -11 44 -14 18 -25 40 -25 50 0 9 -11 21 -24
25 -27 11 -43 41 -21 41 19 0 19 5 0 66 -29 95 -12 188 41 235 37 33 127 69
171 69 63 0 185 -60 212 -104 12 -18 21 -43 21 -54 0 -11 5 -24 10 -27 16 -10
11 26 -9 70 -49 110 -223 159 -351 99z"/>
<path d="M4531 5294 c0 -11 3 -14 6 -6 3 7 2 16 -1 19 -3 4 -6 -2 -5 -13z"/>
<path d="M4530 5251 c0 -5 5 -13 10 -16 6 -3 10 -2 10 4 0 5 -4 13 -10 16 -5
3 -10 2 -10 -4z"/>
<path d="M4532 5190 c-16 -26 -15 -41 2 -34 18 7 26 27 17 42 -4 7 -11 5 -19
-8z"/>
<path d="M5060 5089 c-18 -39 -31 -55 -48 -57 -25 -4 -37 -24 -29 -47 13 -33
113 102 105 141 -2 10 -13 -5 -28 -37z"/>
<path d="M2040 5098 c0 -9 6 -19 13 -21 9 -4 9 -7 0 -14 -10 -7 -43 -84 -43
-99 0 -2 7 -4 15 -4 8 0 15 -8 15 -17 0 -15 3 -15 21 4 13 12 23 38 26 64 4
37 1 49 -21 74 -19 22 -26 25 -26 13z"/>
<path d="M4520 5093 c0 -28 34 -80 67 -101 19 -13 37 -21 40 -18 11 11 -7 36
-25 36 -19 0 -52 29 -52 46 0 15 -29 51 -30 37z"/>
<path d="M4972 4902 c-10 -22 -9 -27 10 -41 28 -20 107 -50 133 -51 11 0 29
-6 40 -13 11 -7 40 -20 65 -27 25 -8 79 -32 120 -52 41 -21 80 -38 87 -38 19
0 61 -50 88 -104 14 -28 25 -42 25 -33 0 35 -50 117 -87 142 -21 14 -41 25
-46 25 -4 0 -41 16 -81 35 -41 19 -81 35 -89 35 -9 0 -18 4 -21 9 -3 4 -43 18
-88 31 -82 23 -118 42 -118 64 0 6 -6 18 -13 27 -11 15 -14 14 -25 -9z"/>
<path d="M1986 4888 c-9 -17 -16 -37 -16 -44 0 -8 -24 -29 -52 -49 -46 -31
-60 -35 -114 -35 -47 0 -68 5 -88 21 -14 11 -26 17 -26 12 0 -4 15 -18 33 -30
25 -17 48 -23 89 -23 49 0 63 5 102 35 25 19 51 34 58 32 6 -1 15 16 20 37 5
22 16 48 25 58 14 16 15 18 0 18 -8 0 -23 -14 -31 -32z"/>
<path d="M4609 4854 c-21 -21 -53 -41 -84 -50 -27 -8 -79 -30 -115 -48 -229
-117 -247 -132 -278 -227 -24 -70 -24 -74 -20 -366 2 -112 0 -203 -4 -203 -5
0 -8 -10 -8 -22 0 -11 -11 -35 -24 -52 -75 -100 -121 -262 -118 -421 1 -43
-16 -139 -28 -164 -4 -9 -13 -27 -20 -41 -6 -14 -32 -41 -58 -60 -69 -52 -222
-211 -222 -231 0 -31 85 -34 97 -3 8 21 20 17 26 -8 4 -12 -2 -40 -12 -63 -10
-23 -24 -65 -32 -93 -12 -47 -11 -54 4 -70 13 -13 21 -14 35 -6 9 6 17 17 17
24 0 7 6 15 13 18 15 5 16 -13 1 -39 -5 -11 -7 -29 -4 -41 6 -17 13 -19 42
-15 20 4 44 2 54 -4 15 -7 24 -3 47 21 33 34 42 37 42 15 0 -24 28 -18 46 10
9 14 16 37 17 50 0 14 3 28 8 31 5 3 9 22 9 42 0 20 12 60 26 87 16 32 27 74
30 115 6 67 39 186 55 195 5 4 9 13 9 22 0 9 23 49 50 89 28 40 50 77 50 83 0
6 4 11 9 11 11 0 64 116 90 200 12 35 26 105 31 154 6 50 13 102 15 116 4 19
1 17 -11 -10 -9 -19 -17 -51 -19 -70 -2 -19 -6 -43 -10 -52 -4 -9 -4 -21 -1
-27 6 -9 -25 -121 -50 -178 -39 -92 -52 -116 -116 -218 -38 -60 -71 -121 -75
-135 -3 -14 -11 -34 -18 -45 -17 -27 -32 -104 -30 -146 1 -19 -1 -36 -4 -39
-8 -6 -56 -130 -56 -145 0 -5 -4 -15 -7 -21 -4 -6 -5 -22 -3 -36 3 -16 -1 -31
-11 -39 -13 -11 -15 -9 -10 12 19 91 18 101 -5 97 -17 -2 -25 -13 -31 -38 -17
-67 -41 -120 -54 -120 -12 0 -12 5 0 33 7 19 17 58 21 86 7 51 6 53 -16 49
-19 -3 -24 -13 -37 -73 -14 -73 -25 -95 -48 -95 -15 0 -18 12 -6 24 4 4 7 17
8 29 1 12 4 29 7 37 30 79 31 110 2 110 -18 0 -68 -97 -59 -112 4 -6 3 -8 -4
-4 -6 3 -15 -2 -21 -11 -20 -36 -20 -4 0 63 12 38 27 88 34 112 l12 42 -33 0
c-18 0 -39 -7 -48 -15 -14 -14 -46 -21 -46 -9 0 21 158 192 195 211 84 43 119
142 129 366 5 114 24 183 73 274 78 141 73 125 73 283 -1 206 -1 227 -2 305
-2 60 3 79 31 138 31 65 93 127 125 127 6 0 27 10 46 23 19 13 55 31 80 42 25
10 52 24 60 30 8 6 40 19 71 28 87 27 151 76 116 90 -9 3 -29 -9 -48 -29z
m-584 -2044 c3 -5 1 -10 -4 -10 -6 0 -11 5 -11 10 0 6 2 10 4 10 3 0 8 -4 11
-10z"/>
<path d="M1972 4723 c-6 -15 -14 -41 -18 -58 -10 -43 10 -19 26 33 15 48 9 67
-8 25z"/>
<path d="M1520 4670 c-84 -46 -139 -69 -185 -81 -72 -17 -138 -55 -161 -92
-42 -70 -44 -92 -37 -302 5 -149 9 -191 16 -165 5 19 7 51 5 72 -2 21 1 38 5
38 5 0 4 6 -2 14 -9 11 -9 15 1 18 9 3 8 18 -6 62 -38 119 11 267 103 316 40
21 124 37 154 29 15 -4 27 -3 27 2 0 5 -6 9 -12 9 -20 1 31 36 90 65 28 13 52
27 52 30 0 9 -14 5 -50 -15z"/>
<path d="M1765 4580 c10 -11 20 -20 22 -20 2 0 -2 9 -9 20 -7 11 -17 20 -22
20 -5 0 -1 -9 9 -20z"/>
<path d="M1503 4583 c-7 -2 -13 -8 -13 -12 0 -8 100 6 109 15 6 6 -81 3 -96
-3z"/>
<path d="M1458 4573 c7 -3 16 -2 19 1 4 3 -2 6 -13 5 -11 0 -14 -3 -6 -6z"/>
<path d="M2400 4560 c0 -5 5 -10 11 -10 5 0 7 5 4 10 -3 6 -8 10 -11 10 -2 0
-4 -4 -4 -10z"/>
<path d="M2441 4525 c9 -11 19 -29 22 -40 18 -59 46 -128 47 -111 0 33 -42
134 -64 153 -21 18 -21 18 -5 -2z"/>
<path d="M5562 4415 c0 -16 2 -22 5 -12 2 9 2 23 0 30 -3 6 -5 -1 -5 -18z"/>
<path d="M2496 4247 c-14 -38 -15 -47 -3 -71 14 -25 14 -24 20 41 3 38 4 69 3
71 -2 1 -11 -17 -20 -41z"/>
<path d="M4315 4253 c7 -30 13 -39 19 -32 8 8 -6 59 -16 59 -6 0 -7 -11 -3
-27z"/>
<path d="M2267 4224 c-48 -53 -114 -87 -187 -95 l-55 -6 66 -2 c58 -1 71 3
110 29 24 16 49 30 54 30 9 0 59 81 53 85 -2 1 -20 -18 -41 -41z"/>
<path d="M5361 4244 c0 -11 3 -14 6 -6 3 7 2 16 -1 19 -3 4 -6 -2 -5 -13z"/>
<path d="M1362 4211 c14 -25 37 -46 63 -58 61 -28 64 -27 15 5 -25 17 -54 44
-65 61 -29 45 -40 38 -13 -8z"/>
<path d="M4353 4151 c12 -32 30 -69 40 -82 20 -27 19 -23 -11 42 -12 26 -24
59 -28 73 -3 14 -10 26 -14 26 -5 0 2 -26 13 -59z"/>
<path d="M5351 4194 c0 -11 3 -14 6 -6 3 7 2 16 -1 19 -3 4 -6 -2 -5 -13z"/>
<path d="M5590 4116 c0 -46 6 -91 15 -114 16 -39 103 -172 120 -184 6 -4 7 -8
3 -8 -4 0 3 -25 17 -56 14 -31 25 -61 25 -66 0 -6 6 -24 14 -41 7 -18 23 -77
35 -131 12 -55 35 -131 53 -168 29 -63 37 -72 112 -122 77 -52 166 -130 166
-145 0 -4 11 -13 24 -21 13 -7 27 -22 30 -34 4 -16 8 -18 18 -8 17 17 -135
169 -225 224 -38 22 -79 55 -91 72 -33 43 -62 129 -70 204 -4 34 -18 97 -32
138 -27 85 -93 224 -106 224 -4 0 -8 5 -8 11 0 6 -11 25 -25 43 -37 49 -52 93
-59 176 -4 41 -9 76 -11 79 -3 2 -5 -30 -5 -73z"/>
<path d="M5327 4138 c-3 -13 -9 -34 -13 -48 -4 -17 -3 -22 4 -15 14 13 33 85
22 85 -4 0 -10 -10 -13 -22z"/>
<path d="M1523 4123 c9 -2 25 -2 35 0 9 3 1 5 -18 5 -19 0 -27 -2 -17 -5z"/>
<path d="M1800 4095 c-7 -9 -8 -15 -2 -15 5 0 12 7 16 15 3 8 4 15 2 15 -2 0
-9 -7 -16 -15z"/>
<path d="M4856 4003 c4 -49 8 -96 8 -105 0 -10 4 -18 9 -18 6 0 6 36 2 88 -5
48 -8 95 -9 105 0 9 -4 17 -9 17 -5 0 -5 -38 -1 -87z"/>
<path d="M5295 4047 c-4 -10 -5 -21 -1 -24 10 -10 18 4 13 24 -4 17 -4 17 -12
0z"/>
<path d="M1770 4039 c0 -5 5 -7 10 -4 6 3 10 8 10 11 0 2 -4 4 -10 4 -5 0 -10
-5 -10 -11z"/>
<path d="M2258 4020 c-3 -14 -9 -34 -12 -45 -4 -11 0 -7 9 8 9 16 15 36 13 45
-3 12 -6 10 -10 -8z"/>
<path d="M4410 4021 c0 -20 28 -56 37 -47 5 5 -25 66 -32 66 -3 0 -5 -9 -5
-19z"/>
<path d="M1401 3974 c0 -11 3 -14 6 -6 3 7 2 16 -1 19 -3 4 -6 -2 -5 -13z"/>
<path d="M1410 3883 c0 -62 3 -73 17 -73 9 0 13 -3 10 -6 -3 -4 -2 -15 4 -25
7 -14 6 -19 -3 -19 -10 0 -10 -2 -1 -8 14 -9 8 -119 -8 -138 -12 -15 -19 -46
-23 -99 -2 -22 -16 -67 -32 -100 l-29 -60 1 -330 c0 -363 5 -408 57 -560 54
-156 75 -233 86 -325 6 -47 15 -98 19 -115 5 -18 3 -52 -6 -90 -26 -110 0
-303 61 -457 14 -35 38 -110 54 -168 24 -92 28 -123 28 -250 0 -170 -4 -180
-117 -299 -82 -85 -87 -111 -30 -140 86 -43 204 -53 248 -19 46 34 104 91 104
102 0 5 7 17 16 27 18 20 21 124 5 191 -6 24 -5 38 1 38 10 0 9 27 -12 210 -9
79 -10 120 -1 166 13 72 15 157 3 150 -12 -7 -27 -163 -25 -266 3 -149 11
-323 18 -386 6 -47 4 -63 -7 -75 -9 -8 -23 -29 -32 -47 -20 -39 -111 -102
-147 -102 -15 0 -29 7 -33 15 -4 12 0 14 17 10 19 -5 22 -2 21 27 0 18 -4 32
-7 31 -4 -2 -11 -3 -17 -3 -5 0 -26 -15 -47 -32 -23 -21 -34 -26 -30 -16 7 19
-8 34 -18 18 -3 -5 -15 -10 -26 -10 -36 0 -24 51 22 95 111 106 143 218 119
410 -6 55 -16 111 -20 125 -5 14 -14 50 -20 80 -13 59 -39 139 -51 155 -4 6
-10 28 -14 50 -4 22 -15 54 -23 70 -13 24 -17 71 -18 240 -1 116 -5 228 -8
250 -3 22 -8 60 -12 85 -5 41 -34 143 -54 195 -26 68 -60 187 -65 230 -3 28
-10 68 -15 90 -6 24 -8 161 -6 335 3 266 6 300 24 350 11 30 28 57 38 60 13 5
15 8 5 15 -17 10 -7 95 16 139 23 45 14 225 -15 286 l-21 45 -1 -72z"/>
<path d="M1650 3863 c-30 -47 -61 -92 -68 -99 -7 -8 -9 -14 -3 -14 5 0 23 16
38 35 33 40 105 165 95 165 -4 0 -32 -39 -62 -87z"/>
<path d="M2237 3943 c-9 -14 -26 -135 -20 -146 9 -16 22 5 28 46 8 52 3 117
-8 100z"/>
<path d="M5336 3930 c3 -14 11 -32 16 -40 6 -10 7 -7 2 10 -3 14 -11 32 -16
40 -6 10 -7 7 -2 -10z"/>
<path d="M1980 3900 c6 -11 13 -20 16 -20 2 0 0 9 -6 20 -6 11 -13 20 -16 20
-2 0 0 -9 6 -20z"/>
<path d="M5250 3907 c0 -10 7 -34 15 -54 8 -19 15 -47 16 -62 0 -14 3 -20 6
-12 3 7 0 39 -7 70 -13 57 -30 89 -30 58z"/>
<path d="M1141 3864 c-1 -43 -6 -56 -36 -89 -46 -52 -89 -159 -110 -275 -33
-181 -69 -312 -95 -344 -8 -10 -30 -25 -48 -33 -51 -21 -78 -45 -176 -158 -56
-64 -59 -68 -41 -81 27 -20 50 -17 83 11 17 14 38 25 47 25 25 0 13 -50 -29
-121 -18 -30 -36 -72 -40 -91 -6 -31 -4 -36 16 -41 13 -4 27 -2 32 3 15 15 26
12 26 -9 0 -29 32 -63 53 -56 9 4 17 11 17 16 0 5 7 9 16 9 10 0 14 -6 10 -15
-9 -26 32 -17 50 10 9 14 24 25 33 25 9 0 23 6 32 13 23 17 59 100 59 135 0
15 12 53 26 83 19 38 28 78 33 135 6 79 7 81 82 195 140 209 194 313 214 406
2 10 11 38 19 62 11 30 13 48 6 56 -5 6 -7 14 -4 18 3 3 3 16 -2 29 l-7 23 -9
-25 c-5 -13 -8 -42 -7 -64 2 -45 -8 -86 -21 -86 -5 0 -7 -12 -4 -26 3 -14 1
-23 -4 -20 -5 3 -9 -5 -9 -18 0 -13 -22 -64 -48 -112 -27 -49 -57 -105 -67
-125 -10 -20 -30 -47 -43 -59 -14 -13 -25 -28 -25 -33 0 -5 -13 -28 -28 -51
-42 -62 -62 -120 -62 -181 0 -56 -27 -132 -56 -156 -8 -7 -14 -30 -14 -55 0
-26 -8 -57 -20 -76 -22 -36 -24 -32 -11 23 5 21 5 43 1 49 -16 26 -37 0 -53
-66 -10 -37 -23 -71 -30 -76 -14 -9 -24 11 -10 21 11 6 39 139 31 146 -12 13
-49 -10 -53 -34 -10 -50 -40 -133 -49 -135 -5 0 -11 9 -12 22 -2 12 1 22 6 22
6 0 10 15 10 33 1 17 7 49 14 70 9 23 10 40 4 43 -13 8 -58 -35 -58 -55 0 -9
-10 -32 -22 -51 -30 -49 -35 -20 -7 38 12 26 24 52 26 57 21 72 32 119 28 123
-9 10 -73 -9 -93 -28 -22 -21 -52 -27 -52 -10 0 6 6 10 13 10 7 0 25 19 40 43
49 75 81 107 147 146 69 39 88 65 101 136 4 22 17 78 28 125 29 120 40 171 45
203 13 78 45 151 85 196 29 32 32 33 49 18 29 -26 34 -20 16 16 -10 17 -23 50
-30 72 l-13 40 0 -51z"/>
<path d="M2006 3857 c3 -10 9 -15 12 -12 3 3 0 11 -7 18 -10 9 -11 8 -5 -6z"/>
<path d="M2492 3834 c-24 -37 -29 -55 -10 -36 7 7 20 12 30 12 15 0 17 5 12
28 -4 15 -7 28 -8 29 -1 1 -11 -14 -24 -33z"/>
<path d="M5364 3817 c3 -32 9 -64 14 -70 5 -7 13 -28 17 -47 4 -19 14 -44 21
-55 8 -11 14 -25 14 -32 0 -19 65 -110 170 -239 67 -82 130 -198 149 -275 16
-65 43 -133 71 -179 5 -8 22 -44 38 -80 35 -78 56 -99 81 -83 14 9 22 6 41
-14 19 -19 30 -23 53 -19 16 3 42 6 58 6 23 0 29 4 29 22 0 21 -1 21 -13 3
-13 -17 -15 -16 -38 16 -14 19 -36 57 -49 86 -22 51 -42 69 -61 57 -6 -4 -6
-10 0 -18 6 -7 8 -15 5 -18 -3 -3 4 -22 15 -42 12 -20 18 -36 14 -36 -3 0 2
-9 12 -20 28 -31 9 -37 -21 -7 -15 15 -23 27 -19 27 4 0 3 6 -2 13 -6 6 -13
25 -17 42 -10 39 -24 55 -47 55 -16 0 -18 -5 -13 -27 4 -16 11 -36 16 -46 5
-10 7 -21 4 -25 -10 -10 -35 32 -36 59 0 15 -9 38 -20 52 -33 42 -80 137 -80
163 0 59 -62 185 -125 254 -74 81 -165 210 -197 280 -32 68 -47 109 -78 220
-9 31 -9 28 -6 -23z"/>
<path d="M4872 3830 c0 -19 2 -27 5 -17 2 9 2 25 0 35 -3 9 -5 1 -5 -18z"/>
<path d="M1287 3770 c-23 -27 -11 -47 14 -24 19 17 26 44 11 44 -4 0 -15 -9
-25 -20z"/>
<path d="M2200 3743 c0 -21 5 -45 10 -53 7 -11 9 -4 7 25 -1 22 2 46 6 53 5 8
3 12 -7 12 -12 0 -16 -10 -16 -37z"/>
<path d="M2571 3755 c0 -5 6 -19 14 -29 20 -27 60 -154 90 -291 21 -94 43
-167 56 -185 14 -20 9 3 -36 170 -20 74 -40 153 -44 175 -4 22 -17 60 -28 85
-22 48 -52 91 -52 75z"/>
<path d="M2255 3691 c7 -21 18 -47 23 -57 28 -53 48 -107 51 -139 1 -5 10 -21
21 -35 20 -24 20 -23 -1 30 -12 30 -26 73 -31 95 -5 22 -15 47 -21 55 -21 26
-37 59 -37 75 0 8 -4 15 -10 15 -5 0 -3 -17 5 -39z"/>
<path d="M5200 3720 c14 -4 32 -8 40 -9 13 -1 13 0 0 9 -8 5 -26 9 -40 9 l-25
-1 25 -8z"/>
<path d="M5310 3653 c19 -30 31 -62 31 -87 2 -34 3 -36 6 -11 6 35 -13 103
-35 128 -30 34 -31 16 -2 -30z"/>
<path d="M4720 3679 c0 -6 19 -34 42 -63 23 -28 43 -53 45 -55 2 -2 5 -2 8 1
7 7 -56 103 -77 117 -13 8 -18 8 -18 0z"/>
<path d="M5001 3646 c-17 -24 -27 -47 -22 -51 11 -6 67 82 58 91 -3 3 -19 -15
-36 -40z"/>
<path d="M4455 3668 c-26 -73 -32 -109 -35 -213 -9 -374 -5 -432 37 -635 15
-74 72 -250 92 -287 18 -33 60 -187 66 -245 4 -32 10 -60 15 -63 5 -3 1 -29
-8 -58 -11 -35 -16 -88 -16 -162 0 -120 5 -138 83 -330 22 -55 41 -106 41
-112 0 -7 5 -13 10 -13 6 0 10 2 10 4 0 12 -65 198 -91 261 -35 87 -42 187
-21 304 11 65 12 95 4 135 -6 28 -16 86 -23 129 -6 42 -15 77 -20 77 -4 0 -11
16 -15 35 -3 19 -10 35 -14 35 -5 0 -11 15 -15 33 -3 17 -10 41 -15 52 -33 81
-63 200 -95 388 -24 136 -13 568 15 635 11 23 14 42 9 42 -5 0 -12 -6 -14 -12z"/>
<path d="M2230 3631 c0 -6 4 -13 10 -16 6 -3 7 1 4 9 -7 18 -14 21 -14 7z"/>
<path d="M5351 3499 c-1 -15 6 -64 15 -110 34 -174 42 -266 39 -434 -2 -120
-8 -188 -19 -233 -10 -34 -21 -85 -27 -112 -5 -28 -15 -74 -21 -102 -7 -29
-13 -111 -12 -183 0 -111 4 -142 26 -215 38 -122 42 -187 18 -295 -28 -128
-52 -338 -47 -417 2 -38 0 -68 -4 -68 -15 0 -10 -33 8 -52 15 -17 15 -20 3
-28 -8 -6 -10 -10 -4 -10 6 0 10 -20 10 -47 0 -35 9 -66 32 -113 36 -71 60
-103 43 -57 -6 16 -15 36 -20 45 -5 9 -12 62 -16 117 -4 55 -11 108 -16 118
-13 24 -11 302 2 352 45 171 58 349 28 405 -4 8 -17 47 -28 86 -18 60 -20 90
-16 195 3 69 14 159 25 204 42 180 54 277 54 450 0 156 -20 355 -39 385 -3 6
-12 41 -20 78 -7 37 -14 55 -14 41z"/>
<path d="M2180 3451 c-20 -16 -46 -50 -59 -77 -13 -27 -41 -70 -62 -96 -48
-58 -49 -67 -4 -31 19 15 48 53 65 83 16 30 46 76 66 103 20 26 34 47 32 47
-2 0 -19 -13 -38 -29z"/>
<path d="M1491 3423 c26 -27 63 -74 83 -105 36 -54 111 -126 122 -116 2 3 -17
27 -44 54 -27 27 -65 76 -85 109 -34 58 -83 105 -109 105 -7 0 8 -21 33 -47z"/>
<path d="M2426 3357 c3 -10 9 -15 12 -12 3 3 0 11 -7 18 -10 9 -11 8 -5 -6z"/>
<path d="M2459 3302 c5 -10 18 -25 28 -33 12 -10 11 -5 -6 19 -24 35 -38 43
-22 14z"/>
<path d="M4900 3273 c0 -21 5 -45 10 -53 7 -11 10 -2 10 32 0 26 -4 50 -10 53
-6 4 -10 -9 -10 -32z"/>
<path d="M2520 3226 c0 -4 8 -20 19 -34 40 -57 64 -119 68 -172 4 -52 29 -137
55 -184 14 -24 15 -28 17 -55 0 -11 7 -26 14 -33 8 -7 12 -18 10 -24 -4 -13
43 -54 62 -54 6 0 20 -9 30 -20 21 -23 55 -27 55 -5 0 8 5 15 10 15 6 0 10 -4
10 -9 0 -12 29 -23 42 -15 6 4 0 15 -14 28 -14 11 -31 41 -38 66 -20 69 -40
110 -53 107 -16 -3 -27 -29 -17 -42 5 -5 13 -30 20 -55 6 -25 14 -53 17 -63 4
-16 2 -17 -17 -7 -12 6 -19 14 -17 17 3 3 -1 22 -8 44 -8 21 -12 39 -9 39 2 0
0 9 -6 20 -14 26 -55 28 -47 3 3 -10 10 -33 15 -50 12 -39 1 -44 -18 -8 -7 14
-16 25 -20 25 -3 0 -5 16 -4 35 2 21 -2 37 -11 42 -7 5 -14 11 -14 16 0 4 -11
28 -25 55 -15 31 -25 71 -28 118 -4 61 -11 80 -43 130 -44 67 -55 81 -55 70z"/>
<path d="M2750 3201 c0 -5 5 -13 10 -16 6 -3 10 -2 10 4 0 5 -4 13 -10 16 -5
3 -10 2 -10 -4z"/>
<path d="M2784 3161 c7 -11 46 -35 46 -28 0 3 -12 12 -26 22 -15 9 -23 12 -20
6z"/>
<path d="M4888 3125 c-51 -44 -140 -50 -303 -20 l-30 6 35 -20 c32 -18 95 -31
160 -32 14 -1 53 7 88 16 35 9 66 15 69 12 3 -3 7 -53 8 -111 1 -57 6 -109 9
-115 4 -5 7 -26 8 -46 1 -19 5 -35 9 -35 5 0 15 -21 23 -47 19 -62 19 -35 1
85 -17 116 -33 265 -29 271 2 2 31 -2 64 -9 72 -15 184 -7 235 17 35 17 51 42
18 28 -118 -49 -285 -43 -316 11 -11 19 -17 17 -49 -11z"/>
<path d="M2351 3094 c0 -11 3 -14 6 -6 3 7 2 16 -1 19 -3 4 -6 -2 -5 -13z"/>
<path d="M2938 3044 c91 -102 102 -116 102 -121 0 -8 -45 9 -52 21 -6 8 -8 7
-8 -1 0 -7 9 -17 19 -23 21 -11 71 -14 71 -4 0 9 -140 158 -159 168 -9 5 3
-13 27 -40z"/>
<path d="M2356 3008 c8 -106 10 -248 2 -248 -4 0 -6 -12 -6 -28 1 -15 -2 -37
-6 -50 -6 -16 -3 -22 8 -22 10 0 16 10 17 28 1 15 3 38 5 52 2 14 4 87 4 164
-1 105 -4 142 -15 153 -12 12 -14 5 -9 -49z"/>
<path d="M6150 3032 c0 -6 9 -12 20 -15 11 -3 20 -3 20 -1 0 2 -9 8 -20 14
-11 6 -20 7 -20 2z"/>
<path d="M2740 2995 c13 -14 26 -25 28 -25 3 0 -5 11 -18 25 -13 14 -26 25
-28 25 -3 0 5 -11 18 -25z"/>
<path d="M915 2949 c-16 -10 -40 -24 -52 -30 -19 -10 -32 -29 -19 -29 20 0 66
27 84 51 27 34 27 34 -13 8z"/>
<path d="M2795 2951 c-7 -12 30 -33 51 -29 11 2 6 9 -15 21 -17 10 -32 13 -36
8z"/>
<path d="M6030 2939 c0 -18 44 -109 52 -109 5 0 8 -12 9 -27 l0 -28 16 23 c16
23 17 23 27 4 9 -15 16 -18 34 -11 12 5 22 15 22 23 0 21 -35 77 -43 69 -11
-10 -8 -20 9 -37 24 -25 12 -40 -14 -18 -12 11 -22 22 -22 26 0 4 -10 21 -22
39 -35 49 -68 72 -68 46z"/>
<path d="M6125 2910 c3 -5 8 -10 11 -10 2 0 4 5 4 10 0 6 -5 10 -11 10 -5 0
-7 -4 -4 -10z"/>
<path d="M2730 2900 c0 -15 25 -27 55 -25 48 4 50 4 40 14 -13 11 -95 21 -95
11z"/>
<path d="M960 2885 c-7 -8 -27 -15 -44 -15 -24 0 -27 -3 -16 -10 32 -21 90 -1
90 31 0 14 -16 11 -30 -6z"/>
<path d="M2860 2843 c0 -10 6 -30 14 -45 8 -15 17 -42 21 -60 11 -58 16 -68
30 -68 8 0 11 7 8 20 -6 22 7 26 24 9 18 -18 43 -3 43 25 0 25 -41 112 -62
131 -18 17 1 -47 22 -77 24 -32 27 -70 6 -62 -8 3 -23 28 -33 56 -19 54 -73
107 -73 71z"/>
<path d="M1847 2843 c-36 -4 -38 -6 -24 -21 8 -10 17 -44 19 -80 3 -48 10 -68
27 -85 l22 -22 -3 90 c-2 50 1 98 6 108 4 9 4 16 0 15 -5 -1 -26 -3 -47 -5z"/>
<path d="M4911 2763 c-1 -32 3 -43 14 -43 13 0 14 4 5 20 -8 15 -8 20 2 20 9
0 10 3 2 8 -6 4 -14 14 -17 22 -3 8 -6 -4 -6 -27z"/>
<path d="M4915 2618 c3 -46 10 -108 15 -138 12 -70 14 -177 6 -260 -6 -53 -2
-84 19 -164 17 -68 25 -125 25 -183 0 -77 -2 -86 -26 -110 -17 -17 -32 -23
-47 -20 -12 3 -38 8 -57 11 l-35 7 34 -15 c18 -9 54 -16 80 -16 44 0 48 2 58
33 16 50 0 317 -20 317 -5 0 -6 7 -3 16 4 9 1 26 -7 38 -7 12 -11 32 -8 46 2
14 4 68 4 120 1 55 5 98 11 102 8 5 8 8 0 8 -6 0 -11 6 -12 13 0 6 -4 59 -7
117 -4 65 -10 107 -18 112 -9 6 -9 10 2 17 14 9 7 31 -11 31 -7 0 -8 -28 -3
-82z"/>
<path d="M4966 2663 c-4 -9 -2 -19 4 -23 6 -3 11 -49 12 -103 1 -65 6 -98 14
-101 12 -5 12 33 -2 182 -6 61 -16 78 -28 45z"/>
<path d="M1835 2532 c2 -67 7 -127 10 -132 11 -17 8 -274 -4 -330 -9 -42 -9
-73 0 -127 7 -40 15 -73 19 -73 3 0 8 -74 9 -165 l2 -165 28 -28 c23 -23 29
-38 34 -97 3 -39 10 -81 16 -95 20 -52 12 92 -10 160 -18 56 -21 91 -22 250 0
102 3 195 7 208 6 14 4 22 -3 22 -6 0 -11 -9 -11 -19 0 -19 -24 -51 -38 -51
-4 0 -8 50 -10 112 -3 102 -2 110 14 98 24 -21 47 -22 39 -2 -12 30 -14 63
-15 299 -1 206 -3 231 -16 218 -9 -8 -12 -19 -9 -25 4 -6 4 -24 0 -40 -7 -34
-33 -31 -31 3 1 12 -1 40 -5 62 -5 23 -6 -13 -4 -83z"/>
<path d="M2349 2640 c-1 -5 -2 -13 -3 -17 -12 -50 -19 -78 -22 -96 -2 -12 -15
-62 -29 -112 -39 -132 -43 -152 -51 -245 -11 -132 -10 -243 1 -247 6 -2 10
-19 9 -38 -1 -19 1 -35 5 -35 9 0 4 -108 -9 -180 -7 -36 -23 -101 -36 -145
-36 -122 -64 -246 -64 -286 0 -20 -5 -61 -12 -93 -8 -44 -8 -76 1 -139 15 -97
29 -127 96 -199 28 -30 57 -63 65 -73 14 -17 13 -18 -2 -12 -24 9 -23 -2 4
-30 15 -17 17 -23 7 -23 -8 0 -20 9 -27 20 -17 28 -35 15 -27 -19 l7 -26 -20
23 c-15 16 -29 22 -49 20 -34 -4 -46 -38 -13 -38 30 0 20 -24 -11 -28 -35 -4
-138 55 -152 87 -6 14 -20 33 -31 43 -18 15 -20 30 -23 168 -1 84 -5 155 -7
158 -3 3 0 12 7 20 10 13 9 14 -3 10 -24 -8 -17 -326 7 -369 10 -18 22 -39 27
-48 11 -20 65 -58 120 -84 32 -16 46 -17 80 -8 22 5 56 13 74 17 19 3 50 21
69 40 41 40 45 32 -67 144 -99 99 -114 140 -107 302 6 136 25 256 60 363 15
44 31 108 36 142 5 34 14 71 20 82 6 10 9 39 6 63 -2 23 -5 73 -6 111 -1 37
-6 67 -11 67 -4 0 -7 3 -6 8 1 4 -1 25 -6 46 -4 22 -3 67 3 100 5 34 14 102
20 152 5 51 14 100 19 110 6 11 20 62 32 114 12 52 26 111 31 131 5 20 9 41 9
48 0 14 -20 15 -21 1z"/>
<path d="M4983 2400 c-1 -11 2 -20 7 -20 5 0 7 -7 4 -15 -4 -10 0 -15 11 -15
12 0 15 5 11 16 -3 9 -6 24 -6 35 0 25 -25 25 -27 -1z"/>
<path d="M5007 2312 c-3 -15 -1 -46 4 -68 6 -21 12 -109 14 -194 3 -152 22
-278 47 -307 8 -10 26 -12 67 -7 58 6 97 21 87 32 -4 3 -12 0 -18 -6 -19 -19
-102 -15 -120 6 -29 34 -41 106 -43 262 -2 133 -17 296 -29 307 -2 2 -6 -9 -9
-25z"/>
<path d="M1791 2137 c-1 -10 -7 -28 -15 -40 -8 -12 -17 -33 -21 -47 -7 -22 -6
-23 9 -11 9 7 16 18 16 24 0 6 7 19 17 29 13 14 14 23 5 40 -9 19 -11 20 -11
5z"/>
<path d="M1960 2107 c0 -8 6 -20 14 -26 12 -10 13 -8 9 9 -7 25 -23 37 -23 17z"/>
<path d="M1900 2055 c7 -8 10 -21 7 -30 -4 -8 -2 -17 3 -20 5 -3 7 -12 3 -20
-3 -8 0 -15 7 -15 8 0 10 12 6 38 -3 20 -5 43 -6 50 0 6 -7 12 -16 12 -13 0
-14 -3 -4 -15z"/>
<path d="M4990 1638 c0 -7 -3 -23 -6 -35 -4 -13 -2 -23 3 -23 5 0 10 16 11 35
2 19 0 35 -3 35 -3 0 -5 -6 -5 -12z"/>
<path d="M5093 1539 c8 -42 15 -127 22 -236 2 -45 14 -117 25 -159 11 -43 20
-86 20 -96 0 -12 7 -18 21 -18 24 0 24 1 -10 90 -22 58 -29 184 -11 195 13 8
13 25 -1 25 -5 0 -8 -4 -5 -9 3 -5 -1 -12 -10 -15 -12 -4 -15 -2 -10 9 3 8 0
15 -6 15 -7 0 -6 5 2 15 6 8 8 20 4 26 -4 7 -9 31 -10 53 -5 76 -15 125 -26
132 -7 5 -9 -4 -5 -27z"/>
<path d="M4975 1541 c-8 -26 -3 -91 7 -91 9 0 9 -2 11 63 2 48 -7 62 -18 28z"/>
<path d="M4748 1473 c3 -32 10 -61 16 -65 6 -4 7 -8 1 -8 -6 0 -9 -67 -7 -185
3 -175 11 -218 27 -142 4 17 12 37 17 44 5 7 7 35 3 65 -4 29 -2 72 3 96 8 32
7 42 -2 42 -8 0 -19 38 -31 105 -19 114 -35 140 -27 48z"/>
<path d="M4821 1420 c5 -23 7 -52 5 -66 -3 -17 -1 -24 7 -21 19 6 7 127 -13
127 -4 0 -4 -18 1 -40z"/>
<path d="M4975 1419 c12 -36 12 -104 2 -111 -8 -4 -7 -22 0 -55 11 -46 5 -122
-13 -166 -7 -20 19 -125 43 -171 9 -15 18 -56 20 -90 4 -52 2 -65 -17 -88 -18
-23 -29 -28 -66 -28 -55 0 -167 53 -186 88 -15 29 -13 174 3 203 5 11 6 19 1
19 -28 0 -54 -190 -31 -231 7 -13 14 -34 15 -47 5 -47 92 -126 184 -168 33
-16 35 -15 56 9 55 64 76 241 38 322 -16 35 -18 68 -19 275 -1 130 -5 241 -9
248 -12 20 -28 14 -21 -9z m-188 -675 c3 -9 13 -14 24 -11 13 4 19 0 19 -12 0
-10 -3 -20 -6 -24 -7 -7 -64 43 -64 55 0 14 21 8 27 -8z m91 -56 c-6 -16 -36
-34 -44 -25 -9 9 15 37 33 37 8 0 13 -5 11 -12z m121 -14 c2 -2 -3 -21 -10
-41 -10 -26 -21 -38 -34 -38 -23 0 -33 34 -15 45 7 4 9 13 5 20 -6 10 -11 9
-21 -5 -8 -10 -20 -15 -29 -11 -14 5 -14 8 -3 19 20 21 40 26 73 20 17 -3 32
-7 34 -9z"/>
<path d="M5166 1427 c3 -10 9 -15 12 -12 3 3 0 11 -7 18 -10 9 -11 8 -5 -6z"/>
<path d="M5183 1389 c3 -9 1 -21 -5 -27 -6 -6 -6 -12 0 -16 5 -3 15 0 21 7 8
10 7 19 -5 33 -12 14 -14 15 -11 3z"/>
<path d="M5244 1369 c-7 -12 -8 -11 28 -27 26 -11 27 -10 16 8 -15 24 -35 33
-44 19z"/>
<path d="M1961 1274 c0 -11 3 -14 6 -6 3 7 2 16 -1 19 -3 4 -6 -2 -5 -13z"/>
<path d="M5154 928 c-18 -97 -8 -147 59 -285 17 -36 46 -63 69 -63 25 0 89 48
137 102 30 34 35 48 40 109 10 109 -10 108 -23 -1 -7 -54 -18 -81 -32 -76 -9
3 -14 -2 -14 -14 0 -11 -4 -20 -10 -20 -5 0 -18 -9 -29 -21 -11 -12 -24 -18
-30 -14 -7 4 -11 -3 -11 -18 0 -14 -6 -27 -14 -30 -15 -6 -56 31 -56 50 0 6
-8 14 -17 18 -16 6 -15 8 7 25 18 14 20 20 9 20 -8 0 -28 13 -44 30 -27 28
-28 32 -26 130 1 55 -1 100 -3 100 -2 0 -8 -19 -12 -42z"/>
<path d="M5390 759 c0 -5 5 -7 10 -4 6 3 10 8 10 11 0 2 -4 4 -10 4 -5 0 -10
-5 -10 -11z"/>
</g>
</svg>
