<svg version="1.1" id="Layer_1" xmlns="http://www.w3.org/2000/svg" xmlns:xlink="http://www.w3.org/1999/xlink" x="0px" y="0px"
	 width="100%" viewBox="0 0 1456 1360" enable-background="new 0 0 1456 1360" xml:space="preserve">
<path fill="none" opacity="1.000000" stroke="#000000" stroke-linecap="round" stroke-linejoin="round" stroke-width="5.000000"
	d="
M249.000000,562.500000 
	C241.441452,572.337036 236.758530,583.429138 233.905472,595.477600 
	C232.331207,602.125732 232.708771,608.871155 232.229935,615.516541 
	C230.900391,633.968811 231.044815,652.523804 229.881348,670.992554 
	C228.936508,685.991028 227.613922,700.967224 228.056000,715.998352 
	C228.458191,729.672791 228.751541,743.391907 230.121109,756.987793 
	C232.973663,785.305481 238.518066,813.142029 246.433441,840.519226 
	C250.642487,855.077332 254.332397,869.793640 257.862122,884.533020 
	C258.580139,887.531311 258.963715,890.926575 258.848785,893.994324 
	C258.355286,907.167542 260.406006,919.976013 264.151306,932.454590 
	C265.931458,938.385620 264.442352,943.928406 263.793030,949.475769 
	C262.992767,956.312988 261.572021,963.082886 260.843658,969.983521 
	C260.208130,976.004211 260.127655,981.986206 259.987000,987.999695 
	C259.453522,1010.809082 263.986603,1032.864624 270.611237,1054.465942 
	C276.536621,1073.786987 281.981873,1093.225098 285.822968,1113.034302 
	C287.703705,1122.733765 288.953278,1132.623535 290.228546,1142.470459 
	C291.221436,1150.136841 291.816132,1157.858887 292.792114,1165.526489 
	C293.303406,1169.543091 292.189606,1174.010132 290.857330,1177.951782 
	C289.439423,1182.146606 288.681458,1186.090942 289.435333,1190.510986 
	C290.721619,1198.053223 286.877411,1204.357056 283.413513,1210.450806 
	C276.402557,1222.784790 266.947906,1233.088989 255.485504,1241.480225 
	C251.491394,1244.404053 249.780884,1248.847046 248.171906,1253.065552 
	C246.849762,1256.532104 249.555801,1258.481323 253.000000,1259.000000 
"/>
<path fill="none" opacity="1.000000" stroke="#000000" stroke-linecap="round" stroke-linejoin="round" stroke-width="5.000000"
	d="
M1110.500000,516.500000 
	C1125.565796,516.159973 1139.362671,519.908447 1149.832764,531.155701 
	C1154.242310,535.892578 1156.308228,542.603149 1157.956299,549.011230 
	C1160.701416,559.685242 1159.987549,570.628601 1159.988892,581.500000 
	C1159.989990,590.781433 1161.754028,599.857910 1162.782715,609.024414 
	C1163.711670,617.303528 1164.444580,625.670288 1165.213745,633.980225 
	C1166.679321,649.809753 1167.856812,665.628723 1167.411499,681.497498 
	C1166.990112,696.509094 1166.466309,711.568115 1164.861328,726.485046 
	C1161.979370,753.268250 1156.666260,779.582764 1149.248779,805.570984 
	C1144.617188,821.798279 1139.640747,837.991211 1136.072388,854.515625 
	C1134.336914,862.551758 1134.936035,870.823242 1135.040283,878.999512 
	C1135.109741,884.454041 1134.706299,889.781128 1133.017700,895.005737 
	C1130.244141,903.587952 1133.012085,911.851562 1135.108398,919.971985 
	C1137.960693,931.020447 1139.882812,942.135498 1141.182129,953.479126 
	C1142.357910,963.744568 1142.099976,973.881409 1140.882202,983.985779 
	C1139.774902,993.173889 1137.129883,1002.095703 1134.577393,1011.022095 
	C1130.142944,1026.530273 1125.681885,1042.023682 1122.895386,1057.981689 
	C1119.653931,1076.546021 1117.781128,1095.153198 1117.929321,1114.000610 
	C1117.976562,1120.007080 1118.688354,1125.812012 1120.508057,1131.497437 
	C1122.682983,1138.291992 1122.833374,1145.340942 1120.750610,1151.921021 
	C1119.531372,1155.773315 1121.957886,1160.438232 1118.000000,1163.500000 
"/>
<path fill="none" opacity="1.000000" stroke="#000000" stroke-linecap="round" stroke-linejoin="round" stroke-width="5.000000"
	d="
M996.500000,516.500000 
	C983.351990,516.063965 971.009338,518.407898 960.502441,527.002991 
	C951.026550,534.754700 947.848511,545.473694 947.087158,557.005737 
	C946.351685,568.145874 946.739563,579.364929 945.874023,590.490173 
	C945.157104,599.704834 942.923584,608.797791 942.125427,618.010864 
	C941.446838,625.842285 940.597778,633.664673 940.052246,641.503662 
	C938.940491,657.478943 938.523499,673.497925 939.084045,689.497070 
	C939.528748,702.189209 940.619995,714.854065 941.802185,727.518494 
	C942.804504,738.256897 944.361267,748.893860 946.136230,759.477173 
	C948.221130,771.908020 950.923340,784.273315 954.097229,796.474731 
	C958.718445,814.239929 964.476440,831.719604 968.734680,849.563293 
	C970.173462,855.591858 971.225403,862.015442 971.127991,868.501953 
	C971.020447,875.654663 969.727051,882.993408 972.057617,889.980774 
	C975.462036,900.187683 973.727905,910.063293 971.018677,920.005066 
	C968.070129,930.825195 966.251038,941.819397 964.810913,952.975586 
	C962.397705,971.669312 965.151611,989.748413 970.184692,1007.447449 
	C974.964478,1024.255615 980.319458,1040.912842 983.832397,1058.034424 
	C984.865845,1063.070923 985.415039,1068.333374 985.924255,1073.507446 
	C986.856873,1082.981323 987.418518,1092.494995 987.978516,1102.001221 
	C988.685669,1114.005249 987.405457,1125.822266 984.588562,1137.521362 
	C983.981689,1140.041870 983.836365,1143.052856 984.631287,1145.456543 
	C986.584412,1151.362427 985.043518,1157.801880 988.239563,1163.642456 
	C989.496277,1165.939087 988.004089,1169.862549 987.467957,1172.994507 
	C985.863342,1182.368530 982.651428,1191.336914 978.826111,1199.922485 
	C975.140320,1208.194824 974.211731,1216.811279 972.978271,1225.496948 
	C972.620422,1228.017090 971.990662,1230.498169 971.502319,1233.000488 
	C970.844238,1236.372803 970.327942,1239.718018 971.987000,1243.006592 
	C974.219055,1247.430786 974.189758,1252.209717 974.005554,1257.000244 
	C973.967163,1257.998779 974.187622,1259.043457 973.967712,1259.992554 
	C972.970947,1264.294678 977.123901,1266.018433 978.311401,1269.073364 
	C979.696472,1272.636597 980.277283,1276.205078 984.998779,1276.518433 
	C985.424622,1276.546631 986.186523,1276.810425 986.198914,1277.003174 
	C986.641785,1283.867310 993.987793,1284.455811 997.051758,1288.964844 
	C999.183411,1292.101807 1002.282959,1292.174316 1005.500000,1290.500000 
"/>
<path fill="none" opacity="1.000000" stroke="#000000" stroke-linecap="round" stroke-linejoin="round" stroke-width="5.000000"
	d="
M1025.500000,205.500000 
	C1022.455261,211.880325 1017.965820,217.418640 1012.365173,221.305756 
	C1005.492798,226.075607 998.530884,230.885910 990.033142,233.125763 
	C971.359497,238.047867 954.415039,247.039368 938.037292,257.061005 
	C933.810486,259.647400 929.544312,262.483154 924.950378,263.830872 
	C909.041931,268.497955 900.566162,280.067200 895.049561,294.518921 
	C890.584717,306.215485 886.467224,318.050446 884.492493,330.498810 
	C883.428894,337.204010 882.826050,344.322784 885.285645,350.384094 
	C888.520508,358.355927 886.881409,365.696747 884.858643,372.960632 
	C880.080750,390.117798 879.703979,407.457336 880.986694,425.000977 
	C882.251282,442.297394 879.193359,458.329041 869.127441,473.086914 
	C856.312134,491.875641 847.875061,512.831787 843.181091,535.038269 
	C840.865784,545.991699 839.740601,557.242004 838.896606,568.492249 
	C837.454712,587.713867 834.696716,606.697571 828.141174,625.050415 
	C824.422913,635.460144 818.001770,643.414795 808.924133,648.873901 
	C792.553528,658.718933 780.777649,673.092346 769.105896,687.585266 
	C765.447754,692.127502 761.607239,696.414246 757.480835,700.480591 
	C755.757812,702.178406 752.657227,703.271484 754.550293,706.470276 
	C756.401306,709.598206 759.763489,710.518005 762.978943,709.891846 
	C768.294678,708.856689 772.792786,705.821289 776.977417,702.471802 
	C779.409363,700.525085 781.863953,699.289185 785.000000,700.500000 
"/>
<path fill="none" opacity="1.000000" stroke="#000000" stroke-linecap="round" stroke-linejoin="round" stroke-width="5.000000"
	d="
M1081.500000,205.500000 
	C1084.632568,213.134964 1090.318115,218.103790 1096.740479,223.319504 
	C1107.904297,232.385773 1121.787476,233.711594 1134.062378,239.364456 
	C1149.270386,246.368073 1163.787109,254.597672 1178.522827,262.457153 
	C1183.713135,265.225403 1189.453003,267.033997 1194.439209,270.098816 
	C1204.231812,276.117889 1208.406738,286.204102 1211.985596,296.504974 
	C1215.972656,307.981018 1219.746094,319.584930 1221.791138,331.535736 
	C1222.903198,338.035095 1222.934937,345.002258 1220.476929,351.491272 
	C1218.251587,357.366119 1218.538696,363.030151 1220.391602,369.033447 
	C1222.890625,377.130829 1224.241211,385.487885 1225.140625,393.985107 
	C1226.557983,407.374451 1226.002686,420.665771 1225.003296,434.000244 
	C1224.037476,446.889618 1228.482910,458.159424 1234.932983,469.039734 
	C1243.541260,483.560364 1251.965210,498.161377 1257.093018,514.470764 
	C1263.152222,533.742065 1266.290527,553.469849 1267.995728,573.500366 
	C1269.424927,590.287964 1271.757935,606.841248 1276.820801,623.055969 
	C1280.194214,633.859863 1286.452148,642.369263 1295.637207,647.766541 
	C1309.888550,656.140930 1320.404053,667.923889 1330.575195,680.438904 
	C1336.365967,687.563843 1341.775391,695.123352 1349.435059,700.591064 
	C1350.812134,701.574097 1353.343140,702.667603 1352.023560,705.510925 
	C1350.800171,708.146973 1348.884277,708.950012 1346.005127,709.099487 
	C1341.321289,709.342529 1337.182983,708.175476 1333.524902,705.466309 
	C1328.971313,702.093933 1324.631958,698.407776 1318.500000,698.500000 
"/>
<path fill="none" opacity="1.000000" stroke="#000000" stroke-linecap="round" stroke-linejoin="round" stroke-width="5.000000"
	d="
M921.500000,339.500000 
	C924.166626,348.333344 927.514282,357.028717 929.338379,366.032745 
	C931.991760,379.130493 934.831482,392.153442 938.494751,405.001495 
	C941.154785,414.330841 944.756104,423.282745 948.968079,432.015381 
	C950.853577,435.924408 951.971191,439.362091 949.358643,444.193909 
	C947.108704,448.354980 946.938416,454.012573 946.140991,459.022430 
	C944.901001,466.812927 941.873901,474.114014 940.721985,481.959198 
	C940.137390,485.941315 939.548401,490.078583 939.222046,494.018402 
	C938.279602,505.394623 935.637817,516.252869 932.050659,527.016907 
	C927.729919,539.982483 923.853394,553.092102 918.014221,565.506653 
	C910.412842,581.667725 900.761780,596.603699 891.054321,611.535339 
	C884.258789,621.987915 876.525208,631.987122 872.564392,644.021179 
	C870.341675,650.774353 866.950806,656.877075 863.515015,663.008423 
	C861.787292,666.091492 860.829102,669.417786 861.001221,672.999939 
	C861.815918,689.959412 857.532349,705.743225 849.424561,720.458435 
	C844.823547,728.809021 843.380005,737.852844 842.006958,747.001038 
	C840.700806,755.703857 837.691223,763.816711 833.459229,771.477478 
	C832.357544,773.471924 830.592285,775.534973 828.045288,774.398499 
	C825.591125,773.303589 826.045593,770.984680 826.391235,768.484985 
	C827.953857,757.183777 827.503906,745.637695 830.500000,734.500000 
"/>
<path fill="none" opacity="1.000000" stroke="#000000" stroke-linecap="round" stroke-linejoin="round" stroke-width="5.000000"
	d="
M440.500000,562.000000 
	C446.684418,572.695740 452.546265,583.622681 455.747192,595.567749 
	C456.724030,599.213135 457.165436,603.427002 457.047180,607.501343 
	C456.450989,628.036133 457.425659,648.580139 459.247864,668.977844 
	C461.111298,689.837036 461.371857,710.671997 460.744568,731.492310 
	C460.419037,742.297668 459.251526,753.188416 458.237701,764.022217 
	C456.170013,786.117859 451.227478,807.580017 445.897949,828.974609 
	C441.892914,845.052307 436.585205,860.789612 432.911621,876.979919 
	C431.481537,883.282654 430.012329,889.504333 429.991211,896.000000 
	C429.949768,908.758484 428.198639,921.287292 424.457336,933.486938 
	C422.980896,938.301331 424.789520,942.893372 425.228577,947.478088 
	C425.883575,954.317383 427.245728,961.123291 428.182220,967.975098 
	C429.531555,977.847290 428.717102,987.666870 428.952789,997.501160 
	C429.270905,1010.773193 426.524414,1023.680237 423.467834,1036.492310 
	C419.719543,1052.203613 414.092407,1067.412354 410.209747,1083.052124 
	C406.491943,1098.027710 402.821930,1113.065918 400.844513,1128.480103 
	C399.242432,1140.968018 397.066406,1153.328613 396.834442,1165.996948 
	C396.710693,1172.756348 398.688904,1178.998413 399.611176,1185.484131 
	C399.724487,1186.281006 400.118896,1187.227783 399.957214,1187.990967 
	C397.216675,1200.925293 405.360229,1209.957886 411.612457,1219.425781 
	C417.640656,1228.554565 425.802673,1235.927734 434.580017,1242.391357 
	C438.579254,1245.336304 439.442017,1249.590942 440.853638,1253.552124 
	C442.160614,1257.219604 438.917542,1258.303833 436.000000,1259.000000 
"/>
<path fill="none" opacity="1.000000" stroke="#000000" stroke-linecap="round" stroke-linejoin="round" stroke-width="5.000000"
	d="
M1052.500000,607.500000 
	C1053.355347,612.979126 1052.838867,618.499939 1053.011597,623.999634 
	C1053.456787,638.163696 1053.001465,652.329895 1053.329712,666.503967 
	C1053.699829,682.484680 1055.567383,698.776672 1052.614868,714.427307 
	C1049.474121,731.074707 1049.259399,747.863037 1047.227661,764.527771 
	C1045.517456,778.553162 1045.851074,792.815002 1045.940186,807.000366 
	C1046.048096,824.196960 1047.389282,841.339722 1047.800049,858.504761 
	C1048.076172,870.044434 1047.247437,881.676575 1044.068115,893.019104 
	C1039.875244,907.978088 1039.755859,914.485413 1043.586304,936.985291 
	C1046.326782,953.081970 1047.650635,969.245789 1046.859009,985.493103 
	C1046.414673,994.612549 1045.327637,1003.735840 1042.135986,1012.549255 
	C1039.835693,1018.901489 1035.000122,1020.479553 1029.492920,1020.908325 
	C1020.868408,1021.579590 1012.867004,1018.728638 1004.986755,1015.532715 
	C1001.230469,1014.009338 997.333313,1012.833313 993.500000,1011.500000 
"/>
<path fill="none" opacity="1.000000" stroke="#000000" stroke-linecap="round" stroke-linejoin="round" stroke-width="5.000000"
	d="
M439.000000,461.500000 
	C439.666656,462.333344 440.854279,463.127716 440.920013,464.005981 
	C441.633484,473.540039 445.387268,482.957306 443.800140,492.466644 
	C441.942688,503.595673 445.924255,513.071777 449.382935,523.040588 
	C453.544525,535.035583 456.542236,547.430603 460.568573,559.477112 
	C466.537781,577.336487 475.594116,593.780884 485.040344,609.976501 
	C493.133331,623.851929 502.062317,637.252014 509.399658,651.551514 
	C512.321899,657.246582 515.197510,663.041870 516.640686,669.468384 
	C517.412231,672.904053 516.179932,675.855652 515.900391,678.991150 
	C514.462891,695.118164 519.275696,710.055969 526.369019,723.809692 
	C530.953064,732.697998 532.464905,741.642639 533.414001,751.008728 
	C534.219360,758.956116 538.771118,765.172241 542.127258,771.936890 
	C542.705078,773.101624 544.540649,774.275818 546.502441,774.018738 
	C548.675049,773.734131 548.405579,771.967834 549.121887,770.562073 
	C551.117920,766.644897 550.421082,762.835693 549.464233,759.008972 
	C548.017883,753.224670 546.333374,747.500000 544.750000,741.750000 
"/>
<path fill="none" opacity="1.000000" stroke="#000000" stroke-linecap="round" stroke-linejoin="round" stroke-width="5.000000"
	d="
M250.000000,461.500000 
	C246.877609,463.584259 247.702621,467.269287 247.212494,470.037628 
	C245.464233,479.912384 243.686584,489.846100 245.861130,500.029663 
	C246.663055,503.785065 245.456161,507.924713 243.913956,511.462494 
	C239.199448,522.277527 236.403000,533.637817 233.462036,544.990173 
	C229.514771,560.226929 222.918747,574.444702 215.978134,588.489197 
	C207.096954,606.460510 196.090439,623.218506 186.038971,640.522644 
	C181.509750,648.320007 176.663635,655.950012 173.419800,664.469482 
	C171.710953,668.957458 171.232941,673.653198 172.174271,677.961914 
	C174.592773,689.032166 171.648514,699.299438 168.366119,709.456726 
	C166.245071,716.020203 162.969559,722.232300 159.960007,728.480713 
	C157.199249,734.212463 156.307770,740.301208 156.038849,746.501709 
	C155.652222,755.415466 152.139816,763.166870 147.434235,770.457581 
	C146.267929,772.264526 144.586914,774.017517 141.786575,773.999573 
	C139.850845,773.225159 139.556122,770.801941 138.000000,769.500000 
"/>
<path fill="none" opacity="1.000000" stroke="#000000" stroke-linecap="round" stroke-linejoin="round" stroke-width="5.000000"
	d="
M1054.000000,717.500000 
	C1054.968628,718.682373 1055.961548,719.703735 1056.049316,721.497620 
	C1057.459839,750.345093 1061.614380,779.059082 1060.901855,807.997559 
	C1060.384766,828.998718 1058.496338,849.963135 1059.002441,870.999939 
	C1059.217041,879.920898 1060.245728,888.864441 1062.235718,897.445374 
	C1064.816040,908.572021 1065.582520,919.257690 1063.247070,930.551086 
	C1061.878784,937.167908 1061.331055,944.116394 1060.802612,950.984802 
	C1059.994629,961.485962 1058.567505,971.969116 1059.100342,982.494934 
	C1059.586792,992.104187 1060.216797,1001.770081 1063.462158,1011.013245 
	C1064.389282,1013.653564 1064.518066,1017.009338 1067.065674,1018.377686 
	C1071.000000,1020.490845 1075.395874,1021.948242 1079.996094,1021.462830 
	C1091.628906,1020.235413 1102.057007,1015.319946 1112.500000,1010.500000 
"/>
<path fill="none" opacity="1.000000" stroke="#000000" stroke-linecap="round" stroke-linejoin="round" stroke-width="5.000000"
	d="
M187.000000,472.500000 
	C172.621872,491.598267 161.975067,512.515381 157.094925,536.019714 
	C154.869690,546.737061 153.812866,557.691772 151.958374,568.492859 
	C150.149918,579.025757 148.227554,589.549866 145.939514,599.986755 
	C143.369232,611.711121 140.228943,623.309265 137.531067,635.007141 
	C135.119812,645.462341 129.138916,652.715698 119.540474,657.579895 
	C106.351791,664.263489 96.326172,674.504883 88.476028,686.984924 
	C83.719406,694.546875 78.488113,701.753113 71.516693,707.520203 
	C69.692245,709.029480 67.320251,710.892212 68.630806,713.432495 
	C69.995506,716.077759 72.912163,717.070740 76.000114,717.005493 
	C79.704460,716.927124 83.108559,715.348328 85.394432,712.901367 
	C92.790878,704.984009 102.903694,701.897766 112.000000,697.000000 
"/>
<path fill="none" opacity="1.000000" stroke="#000000" stroke-linecap="round" stroke-linejoin="round" stroke-width="5.000000"
	d="
M386.000000,232.500000 
	C400.528229,239.679474 414.921539,247.072525 428.535736,255.945190 
	C439.074707,262.813660 450.913483,266.741272 462.991150,270.032471 
	C474.764099,273.240692 486.231506,277.630829 492.828461,288.603119 
	C497.847748,296.951416 500.522003,306.511597 503.026398,315.993042 
	C506.416840,328.828979 506.220886,341.918396 505.911957,354.997925 
	C505.836853,358.178558 505.149139,361.539825 503.900543,364.457458 
	C501.215576,370.731323 501.562042,376.956146 502.389679,383.513916 
	C503.645020,393.460663 503.752228,403.556610 505.108521,413.485168 
	C506.681458,424.999390 505.520294,436.504517 506.007843,447.999664 
	C506.310760,455.141693 505.354828,462.130310 503.473969,468.992859 
	C502.655731,471.978241 503.459045,474.599030 505.026093,476.982849 
	C511.725555,487.174225 518.913940,497.069611 523.503296,508.498688 
	C527.791382,519.177612 530.858704,530.192383 533.031799,541.493896 
	C535.971558,556.782043 537.948730,572.224060 540.819580,587.533813 
	C544.243591,605.793518 548.280457,623.818909 553.894836,641.533325 
	C555.863525,647.744812 559.514221,652.245728 565.039795,654.917725 
	C581.002869,662.636963 593.280029,673.980652 602.158447,689.408813 
	C605.235168,694.755310 608.978882,699.990234 613.968201,704.039185 
	C615.506042,705.287170 616.641113,707.023743 618.007324,708.493225 
	C619.338745,709.925293 621.456421,711.372803 620.386047,713.441040 
	C619.191895,715.748535 616.848877,716.984558 614.000671,717.037354 
	C611.662964,717.080627 609.496094,716.656067 607.511597,715.480469 
	C606.282593,714.752319 605.012756,713.984131 604.024963,712.975647 
	C597.532654,706.347473 589.368958,702.521057 581.010132,698.976074 
	C579.439270,698.309814 578.000000,697.333313 576.500000,696.499939 
"/>
<path fill="none" opacity="1.000000" stroke="#000000" stroke-linecap="round" stroke-linejoin="round" stroke-width="5.000000"
	d="
M1150.500000,531.000000 
	C1152.589844,528.817993 1152.284424,526.021545 1151.931030,523.509705 
	C1150.426758,512.820190 1148.845703,502.134583 1146.941895,491.510406 
	C1145.485596,483.383057 1143.201782,475.340149 1144.054321,467.005554 
	C1145.048828,457.282959 1149.026733,448.690826 1154.860107,439.933411 
	C1158.105103,445.335205 1158.296631,450.576691 1159.492920,455.501709 
	C1161.353394,463.161804 1162.759521,470.962708 1165.140015,478.455505 
	C1166.785156,483.633514 1166.040894,488.865540 1166.729858,494.035980 
	C1168.228271,505.282135 1170.828247,516.165710 1173.961426,527.011108 
	C1178.221313,541.756775 1182.978760,556.309937 1190.032471,569.983215 
	C1196.001587,581.553589 1203.221313,592.398804 1209.937012,603.537964 
	C1217.463135,616.021545 1226.584717,627.582886 1232.423706,641.033142 
	C1235.932373,649.115540 1239.169678,657.276733 1243.368652,665.070801 
	C1245.787598,669.561157 1245.118530,674.955017 1244.973999,679.999268 
	C1244.623657,692.219666 1248.168457,703.527100 1253.042358,714.481140 
	C1256.182129,721.537842 1260.386108,728.144287 1261.512817,735.998169 
	C1262.279297,741.341064 1262.654297,746.811890 1264.114990,751.967407 
	C1266.563599,760.610046 1269.344482,769.256470 1276.007446,775.570251 
	C1280.603394,774.914673 1280.414307,771.726440 1279.929932,769.012512 
	C1277.766724,756.891113 1277.213867,744.533997 1274.500000,732.500000 
"/>
<path fill="none" opacity="1.000000" stroke="#000000" stroke-linecap="round" stroke-linejoin="round" stroke-width="5.000000"
	d="
M344.000000,1032.500000 
	C340.934021,1035.014282 341.476593,1038.907471 341.186707,1042.017456 
	C339.949799,1055.287231 337.238007,1068.320435 335.393372,1081.485107 
	C332.298492,1103.572021 330.112640,1125.687866 331.101288,1147.995483 
	C331.348633,1153.576782 333.110657,1159.039062 334.415863,1164.520020 
	C335.823639,1170.431519 337.200562,1176.461914 334.519989,1182.508911 
	C330.397400,1191.808594 332.841644,1201.119141 334.411560,1210.514771 
	C335.704468,1218.252808 338.735535,1225.999878 335.961060,1233.986450 
	C334.474365,1238.266235 332.153259,1241.946533 327.000000,1242.500000 
"/>
<path fill="none" opacity="1.000000" stroke="#000000" stroke-linecap="round" stroke-linejoin="round" stroke-width="5.000000"
	d="
M345.000000,893.500000 
	C348.323700,896.011292 346.715118,899.847351 347.401886,903.021240 
	C350.535950,917.504883 354.401581,931.955688 352.947632,946.994934 
	C352.251923,954.191040 350.982239,961.330872 350.004944,968.500671 
	C348.983002,975.997681 348.010925,983.501465 346.996918,990.999573 
	C345.940735,998.809570 344.432281,1006.502014 344.298035,1014.496582 
	C344.143799,1023.683228 345.473267,1032.575317 347.028625,1041.494995 
	C350.127472,1059.266113 352.774384,1077.098022 355.046539,1094.994141 
	C356.313660,1104.974365 357.495056,1114.948730 358.009094,1124.999512 
	C358.718536,1138.870850 357.465851,1152.549194 353.977386,1165.994141 
	C352.497925,1171.695923 352.254547,1177.426758 354.066101,1182.978394 
	C356.886414,1191.621460 356.574738,1200.336426 354.895355,1208.979614 
	C353.570374,1215.799072 353.103851,1222.587402 352.900574,1229.497070 
	C352.693726,1236.527710 356.053894,1240.727295 362.000000,1243.500000 
"/>
<path fill="none" opacity="1.000000" stroke="#000000" stroke-linecap="round" stroke-linejoin="round" stroke-width="4.000000"
	d="
M1108.500000,138.500000 
	C1110.532837,126.248604 1114.139893,114.040482 1111.892822,101.519234 
	C1109.595581,88.718033 1102.462036,78.718018 1092.019897,70.973213 
	C1084.765869,65.593002 1076.629517,62.099319 1067.979004,60.090553 
	C1054.439819,56.946533 1040.831055,57.837532 1028.057861,63.139286 
	C1011.505371,70.009613 999.330322,81.678093 994.605164,99.527832 
	C992.300171,108.235298 993.146118,117.195595 994.992859,126.001495 
	C995.774902,129.730316 995.307007,133.795059 998.000000,137.000000 
"/>
<path fill="none" opacity="1.000000" stroke="#000000" stroke-linecap="round" stroke-linejoin="round" stroke-width="5.000000"
	d="
M302.500000,233.500000 
	C289.446228,238.632996 277.190369,245.277390 265.498108,252.997116 
	C253.799927,260.720734 241.156998,266.227936 227.506622,269.527405 
	C205.926941,274.743530 193.265274,288.728638 187.967300,309.991852 
	C184.648895,323.310028 182.444641,336.757172 183.114212,350.494446 
	C183.308731,354.485443 183.878052,358.536987 184.917145,362.521606 
	C187.360016,371.889221 187.435883,381.394928 186.105225,391.014557 
	C185.445557,395.783386 185.718689,400.664185 185.151016,405.517670 
	C184.417374,411.790070 184.439255,418.238953 183.721207,424.467865 
	C182.888275,431.693573 182.903824,438.857605 183.146988,445.994995 
	C183.415924,453.888123 184.141968,461.799683 186.329193,469.548218 
	C187.155533,472.475555 189.316284,474.139862 190.709915,476.368744 
	C194.482193,482.401855 194.226334,488.994629 195.000000,495.500000 
"/>
<path fill="none" opacity="1.000000" stroke="#000000" stroke-linecap="round" stroke-linejoin="round" stroke-width="5.000000"
	d="
M447.000000,377.500000 
	C447.775574,378.901733 448.036987,380.382660 448.024628,382.000183 
	C447.941650,392.842316 448.673950,403.744751 446.918610,414.486694 
	C445.301483,424.382599 443.182800,434.209045 440.916107,443.980530 
	C439.913879,448.301117 438.282013,452.411316 438.944946,457.007935 
	C439.322510,459.625977 436.590729,461.225006 436.065613,463.515045 
	C434.546722,470.139160 433.172729,476.806458 432.050323,483.508423 
	C431.136169,488.966980 430.239563,494.488403 430.089905,500.002441 
	C429.788971,511.089142 434.371918,521.148254 437.492737,531.502197 
	C439.516754,538.217346 441.607544,544.869751 442.087402,551.994141 
	C442.719727,561.381958 436.810364,564.160278 430.036835,568.556763 
	C422.652527,573.349670 416.090332,578.291992 413.084076,587.869446 
	C410.376465,596.495544 406.791168,605.265381 401.525452,613.017273 
	C394.117432,623.922852 384.330475,632.248596 373.500000,639.500000 
"/>
<path fill="none" opacity="1.000000" stroke="#000000" stroke-linecap="round" stroke-linejoin="round" stroke-width="5.000000"
	d="
M344.500000,734.000000 
	C346.149414,741.536377 342.390564,748.321533 341.355591,755.479126 
	C339.217010,770.268677 336.507355,784.997803 337.070709,799.997314 
	C337.565674,813.176758 338.598785,826.338074 339.521729,839.498474 
	C340.246918,849.839355 341.268372,860.160217 341.928314,870.504578 
	C342.092773,873.082458 342.474304,875.291931 344.500000,877.000000 
"/>
<path fill="none" opacity="1.000000" stroke="#000000" stroke-linecap="round" stroke-linejoin="round" stroke-width="3.000000"
	d="
M1053.500000,300.500000 
	C1052.698730,302.103210 1053.012817,303.825562 1053.011475,305.500000 
	C1052.994263,328.333344 1052.940552,351.166870 1053.021606,373.999908 
	C1053.072998,388.500336 1053.817505,403.015015 1053.368774,417.495941 
	C1052.883179,433.170959 1053.105469,448.833618 1053.034180,464.500153 
	C1052.911133,491.499603 1053.000000,518.500000 1053.000000,545.500000 
"/>
<path fill="none" opacity="1.000000" stroke="#000000" stroke-linecap="round" stroke-linejoin="round" stroke-width="5.000000"
	d="
M345.000000,746.500000 
	C345.666656,747.333313 346.804016,748.100830 346.931183,749.009644 
	C350.158234,772.071655 352.309937,795.108459 350.236237,818.520935 
	C349.016266,832.294312 347.800507,846.146179 347.583801,860.001282 
	C347.415741,870.746155 343.759979,881.171326 345.000000,892.000000 
	C339.525360,899.289062 341.122528,908.427124 338.743378,916.571106 
	C335.391785,928.043579 335.474945,939.957703 336.786133,952.023254 
	C338.310394,966.049744 341.699554,979.842712 341.934692,994.001099 
	C341.964508,995.796631 343.118561,996.456055 344.000000,997.500000 
"/>
<path fill="none" opacity="1.000000" stroke="#000000" stroke-linecap="round" stroke-linejoin="round" stroke-width="5.000000"
	d="
M1107.500000,268.500000 
	C1095.869263,273.557861 1089.601440,282.543945 1087.992432,294.999023 
	C1085.886719,311.299500 1086.986206,327.676086 1087.152344,343.998444 
	C1087.317749,360.219635 1093.963623,374.250122 1104.471313,386.524506 
	C1107.407593,389.954407 1110.454468,390.183807 1114.556274,388.650391 
	C1117.224731,387.652832 1119.964844,386.850647 1122.500000,385.500000 
"/>
<path fill="none" opacity="1.000000" stroke="#000000" stroke-linecap="round" stroke-linejoin="round" stroke-width="5.000000"
	d="
M1000.000000,268.000000 
	C1006.585083,272.488586 1012.573730,277.409821 1016.101440,284.952545 
	C1018.235596,289.515686 1018.670227,294.314575 1018.866638,299.005585 
	C1019.500916,314.157257 1020.026978,329.279205 1019.319031,344.514832 
	C1018.571655,360.598572 1011.135071,373.272522 1002.939392,385.960876 
	C1000.504883,389.730011 995.174683,390.803162 991.007996,388.981720 
	C988.961853,388.087219 987.000000,387.000000 985.000000,386.000000 
"/>
<path fill="none" opacity="1.000000" stroke="#000000" stroke-linecap="round" stroke-linejoin="round" stroke-width="5.000000"
	d="
M1040.250000,1018.000000 
	C1043.738647,1033.447754 1045.092163,1048.671143 1041.298340,1064.571167 
	C1037.816406,1079.164185 1036.977173,1094.429199 1038.204590,1109.483276 
	C1038.723145,1115.842407 1039.927368,1122.329712 1038.811523,1128.465698 
	C1035.793945,1145.059692 1037.769043,1162.353149 1031.885132,1178.458008 
	C1030.318726,1182.745605 1027.110474,1186.355591 1025.945068,1190.986206 
	C1024.407104,1197.096558 1022.529663,1203.118164 1022.500000,1209.500000 
"/>
<path fill="none" opacity="1.000000" stroke="#000000" stroke-linecap="round" stroke-linejoin="round" stroke-width="5.000000"
	d="
M1066.000000,1018.500000 
	C1064.190186,1023.852783 1063.774048,1029.449341 1062.836426,1034.972290 
	C1060.816528,1046.871460 1063.972290,1058.036499 1065.805298,1069.531006 
	C1067.852661,1082.368408 1068.940674,1095.474854 1067.831665,1108.485596 
	C1067.233032,1115.508545 1066.040405,1122.518799 1067.080933,1129.487915 
	C1069.615479,1146.463257 1068.026978,1163.999512 1074.000000,1180.500000 
"/>
<path fill="none" opacity="1.000000" stroke="#000000" stroke-linecap="round" stroke-linejoin="round" stroke-width="4.000000"
	d="
M788.000000,696.500000 
	C782.946594,706.690002 780.984314,717.936829 777.064636,728.523926 
	C773.589722,737.909790 770.657349,747.496887 767.510071,757.003296 
	C767.021179,758.479919 766.869019,759.846985 767.411560,761.528564 
	C769.078064,766.694153 772.364746,767.825256 775.969177,763.971130 
	C779.446533,760.252869 781.261780,755.476807 783.475647,750.987976 
	C785.915710,746.040649 788.181763,741.006958 790.492737,735.996704 
	C791.447144,733.927551 792.428528,731.928528 795.000000,731.500000 
"/>
<path fill="none" opacity="1.000000" stroke="#000000" stroke-linecap="round" stroke-linejoin="round" stroke-width="8.000000"
	d="
M127.500000,735.500000 
	C126.889847,744.749146 123.453217,753.415466 121.895302,762.481995 
	C121.226562,766.373840 119.120544,769.874573 121.367584,774.070923 
	C122.488113,776.163513 119.014244,778.762146 121.347427,781.624390 
	C122.206017,782.677612 121.527122,785.047119 123.999687,784.987000 
	C126.035751,784.937500 128.563416,785.653931 129.419464,782.974243 
	C129.868591,781.568420 131.000626,780.803589 131.648163,779.578308 
	C138.460495,766.687744 141.693451,752.875427 143.000000,738.500000 
"/>
<path fill="none" opacity="1.000000" stroke="#000000" stroke-linecap="round" stroke-linejoin="round" stroke-width="5.000000"
	d="
M242.000000,377.500000 
	C240.323700,379.730774 239.980682,382.214691 239.933075,384.998871 
	C239.635895,402.380371 242.476929,419.236877 246.744370,436.064819 
	C248.581909,443.310822 250.686966,450.695953 250.759979,458.497559 
	C250.798584,462.622101 253.970276,466.514069 254.568939,470.990784 
	C255.843384,480.520935 258.056976,489.954468 258.838379,499.513214 
	C259.573181,508.502014 256.193726,516.994507 253.557541,525.517822 
	C250.676086,534.834229 247.082047,544.025269 247.001495,554.000000 
	C246.968735,558.056274 248.223892,561.006592 251.909363,563.627441 
	C264.276459,572.421997 274.829498,583.383301 280.194885,597.615051 
	C284.182861,608.193176 289.657623,617.135681 297.460632,625.038879 
	C302.931885,630.580444 309.023102,635.258667 315.500000,639.500000 
"/>
<path fill="none" opacity="1.000000" stroke="#000000" stroke-linecap="round" stroke-linejoin="round" stroke-width="4.000000"
	d="
M1184.500000,341.500000 
	C1179.722168,353.442932 1177.105103,365.958466 1174.453491,378.490143 
	C1170.706543,396.198486 1166.368042,413.732880 1158.088867,430.045135 
	C1156.471558,433.231812 1156.000000,437.000000 1155.000000,440.500000 
"/>
<path fill="none" opacity="1.000000" stroke="#000000" stroke-linecap="round" stroke-linejoin="round" stroke-width="4.000000"
	d="
M995.000000,132.000000 
	C988.990967,132.341675 988.937073,132.334183 988.010986,139.001526 
	C985.942078,153.897598 989.185486,167.346664 998.982361,179.014816 
	C1000.726562,181.092239 1002.640381,182.520111 1005.499939,182.524338 
	C1009.443298,182.530151 1010.567078,184.973724 1010.518066,188.500244 
	C1010.373596,198.892517 1011.072754,209.340927 1008.042969,219.512787 
	C1007.723755,220.584381 1008.000000,221.833328 1008.000000,223.000000 
"/>
<path fill="none" opacity="1.000000" stroke="#000000" stroke-linecap="round" stroke-linejoin="round" stroke-width="4.000000"
	d="
M102.250000,703.000000 
	C104.467537,708.482910 101.959030,713.581360 100.366714,718.456482 
	C95.916397,732.081543 90.733871,745.465820 86.076767,759.026367 
	C85.038582,762.049316 84.512154,765.467224 86.519897,768.486755 
	C88.092957,770.852600 90.184334,771.421326 92.488976,769.486877 
	C96.580193,766.052795 98.630127,761.376770 100.581413,756.532776 
	C102.062737,752.855408 102.103439,748.058899 107.000000,746.500000 
"/>
<path fill="none" opacity="1.000000" stroke="#000000" stroke-linecap="round" stroke-linejoin="round" stroke-width="5.000000"
	d="
M399.000000,138.500000 
	C402.756500,120.132980 403.590851,98.240387 383.522278,82.970711 
	C374.085388,75.790405 364.033417,70.462700 352.014313,68.890602 
	C342.237579,67.611816 332.923187,68.799339 324.033844,72.579575 
	C313.179596,77.195412 303.275360,83.245110 295.951874,92.963730 
	C287.751953,103.845444 287.360748,116.319153 288.123688,128.992554 
	C288.334625,132.496170 288.347717,136.314041 290.500000,139.500000 
"/>
<path fill="none" opacity="1.000000" stroke="#000000" stroke-linecap="round" stroke-linejoin="round" stroke-width="5.000000"
	d="
M956.000000,530.000000 
	C954.441040,528.297424 953.731873,526.412659 953.959473,523.996155 
	C954.986267,513.093201 956.181213,502.223907 958.479675,491.495636 
	C959.759888,485.519989 961.205505,479.543091 961.906494,473.489197 
	C962.797974,465.790405 960.437256,458.507904 957.442993,451.524445 
	C955.859863,447.832184 955.158447,443.552307 951.500000,441.000000 
"/>
<path fill="none" opacity="1.000000" stroke="#000000" stroke-linecap="round" stroke-linejoin="round" stroke-width="5.000000"
	d="
M965.500000,668.500000 
	C966.148804,670.851196 968.152893,671.763489 969.968750,673.044312 
	C986.487427,684.695374 1004.814148,688.051880 1024.492798,684.954041 
	C1031.848755,683.796082 1038.807129,681.374939 1045.031494,677.045227 
	C1047.281128,675.480286 1049.624023,673.860901 1052.500000,673.500000 
"/>
<path fill="none" opacity="1.000000" stroke="#000000" stroke-linecap="round" stroke-linejoin="round" stroke-width="5.000000"
	d="
M1141.000000,669.000000 
	C1122.420898,684.167969 1101.521240,689.159058 1077.969482,684.143066 
	C1071.208252,682.703064 1065.455322,679.874084 1060.011108,675.984497 
	C1058.034424,674.572327 1055.966919,673.690857 1053.500000,674.000000 
"/>
<path fill="none" opacity="1.000000" stroke="#000000" stroke-linecap="round" stroke-linejoin="round" stroke-width="5.000000"
	d="
M1032.000000,1181.500000 
	C1032.928467,1183.047607 1033.499268,1184.843506 1032.937256,1186.478516 
	C1031.426147,1190.874878 1032.843018,1195.166992 1032.840820,1199.499878 
	C1032.835938,1208.775513 1035.362305,1217.560303 1037.093994,1226.481689 
	C1038.803223,1235.287476 1041.134888,1243.880737 1039.057983,1253.013184 
	C1036.007690,1266.425781 1028.748657,1271.881104 1013.502991,1270.467529 
	C1002.018555,1269.402832 993.062805,1263.059448 984.487061,1256.015747 
	C981.519226,1253.578125 979.302490,1250.006592 975.000000,1249.500000 
"/>
<path fill="none" opacity="1.000000" stroke="#000000" stroke-linecap="round" stroke-linejoin="round" stroke-width="5.000000"
	d="
M1075.000000,1181.000000 
	C1072.414795,1183.357056 1072.251587,1183.490234 1072.515625,1185.497925 
	C1074.311646,1199.151123 1071.352051,1212.295288 1068.570679,1225.514893 
	C1066.565430,1235.046021 1064.578979,1244.608276 1066.923462,1254.518066 
	C1069.008667,1263.332397 1074.006226,1268.174072 1082.984009,1270.075195 
	C1093.479004,1272.297729 1102.200073,1268.109375 1111.018921,1263.536499 
	C1118.330688,1259.745117 1124.307129,1254.070312 1130.779541,1249.206543 
	C1134.798340,1246.186646 1136.338745,1239.687744 1134.759644,1234.574219 
	C1132.956543,1228.735718 1132.970215,1222.792358 1132.240356,1216.969849 
	C1131.208496,1208.737305 1128.193726,1201.424805 1125.042114,1193.982178 
	C1121.051147,1184.557251 1119.198730,1174.536987 1117.500000,1164.500000 
"/>
<path fill="none" opacity="1.000000" stroke="#000000" stroke-linecap="round" stroke-linejoin="round" stroke-width="5.000000"
	d="
M303.000000,201.000000 
	C304.312836,201.410858 305.657562,201.749374 306.502502,202.998306 
	C312.082336,211.245819 320.559631,216.297287 327.983887,222.519226 
	C333.657593,227.274094 340.567505,225.798660 347.006592,226.433090 
	C358.250031,227.540878 365.394836,219.926361 372.986206,213.483749 
	C377.482727,209.667679 381.018250,204.856247 385.869110,201.320435 
	C387.226990,200.330704 387.090729,197.182663 387.476044,194.995773 
	C387.913300,192.514084 388.130890,189.994568 388.509430,187.501434 
	C388.939789,184.666992 389.932220,182.658646 393.505859,182.919556 
	C396.294128,183.123138 398.741730,181.631287 400.473755,179.478897 
	C409.041382,168.832062 413.474091,156.801254 411.962860,143.004074 
	C411.199280,136.032639 408.504852,134.105270 401.000000,134.500000 
"/>
<path fill="none" opacity="1.000000" stroke="#000000" stroke-linecap="round" stroke-linejoin="round" stroke-width="4.000000"
	d="
M366.000000,433.000000 
	C373.635254,441.835571 378.721344,452.190460 384.100372,462.447357 
	C391.800110,477.129547 400.321014,491.342834 414.483917,501.023529 
	C414.944031,501.338043 415.166687,502.000000 415.500000,502.500000 
"/>
<path fill="none" opacity="1.000000" stroke="#000000" stroke-linecap="round" stroke-linejoin="round" stroke-width="4.000000"
	d="
M1308.000000,721.500000 
	C1308.037720,723.459412 1308.140381,725.195984 1309.354004,727.093384 
	C1310.766968,729.302917 1311.286499,732.048401 1310.591919,735.021484 
	C1309.466675,739.838135 1312.308838,744.057617 1313.558228,748.483582 
	C1315.504883,755.378967 1317.625610,762.243347 1320.105591,768.961060 
	C1321.054688,771.531799 1321.090210,773.994690 1320.939941,776.496399 
	C1320.695312,780.569214 1316.155640,782.565063 1313.035400,779.957703 
	C1310.209839,777.596619 1308.549194,774.294006 1307.010132,770.995239 
	C1305.760254,768.316101 1305.302002,765.000854 1301.500000,764.500000 
"/>
<path fill="none" opacity="1.000000" stroke="#000000" stroke-linecap="round" stroke-linejoin="round" stroke-width="4.000000"
	d="
M323.000000,433.000000 
	C314.938171,441.386932 310.372070,451.969360 305.066010,462.034790 
	C297.512207,476.364197 288.620636,489.608521 276.483215,500.481262 
	C275.947693,500.960968 275.166656,501.166687 274.500000,501.500000 
"/>
<path fill="none" opacity="1.000000" stroke="#000000" stroke-linecap="round" stroke-linejoin="round" stroke-width="4.000000"
	d="
M586.500000,703.000000 
	C584.987976,711.005859 588.140198,718.258240 590.607178,725.463318 
	C594.364502,736.436768 598.912292,747.137512 602.932922,758.024780 
	C603.731262,760.186340 603.913025,762.664734 603.931458,765.000549 
	C603.950317,767.388916 602.900879,769.626831 600.476807,770.429871 
	C598.541016,771.071106 596.831848,769.966309 595.504517,768.495911 
	C592.078979,764.700989 590.078064,760.098022 587.946045,755.525146 
	C585.807007,750.937256 585.145752,745.560242 581.000000,742.000000 
"/>
<path fill="none" opacity="1.000000" stroke="#000000" stroke-linecap="round" stroke-linejoin="round" stroke-width="4.000000"
	d="
M464.500000,343.500000 
	C459.602966,354.415344 454.377777,365.225555 447.355560,374.895081 
	C443.132080,380.710785 437.358795,385.295624 431.024445,389.041321 
	C422.951355,393.815155 414.218842,395.345581 405.001465,395.561981 
	C396.073700,395.771637 387.272675,394.970367 378.500000,393.500000 
"/>
<path fill="none" opacity="1.000000" stroke="#000000" stroke-linecap="round" stroke-linejoin="round" stroke-width="4.000000"
	d="
M1320.500000,700.000000 
	C1322.942993,714.744873 1328.649658,728.486511 1333.422363,742.526367 
	C1335.148315,747.603455 1337.429688,752.508850 1338.119141,757.984985 
	C1338.563110,761.511169 1338.088867,764.606018 1334.937500,765.840332 
	C1331.722534,767.099609 1329.010132,765.000854 1327.527832,761.986328 
	C1324.271362,755.363831 1321.095703,748.699097 1318.028809,741.986816 
	C1316.397583,738.416931 1315.296265,734.551697 1311.500000,732.500000 
"/>
<path fill="none" opacity="1.000000" stroke="#000000" stroke-linecap="round" stroke-linejoin="round" stroke-width="4.000000"
	d="
M797.500000,722.500000 
	C795.029175,735.457031 793.781433,748.678711 788.617065,761.048889 
	C787.782593,763.047729 786.855591,765.013855 785.968201,766.985718 
	C784.597046,770.032959 783.630615,773.122986 784.006042,776.499329 
	C784.489258,780.844666 788.459595,782.574280 791.998962,779.998596 
	C794.551025,778.141235 796.379150,775.574951 797.895386,772.939819 
	C798.896790,771.199402 799.569763,769.406067 801.727661,768.556641 
	C803.853027,769.827942 803.148438,771.948059 803.029663,774.001709 
	C802.852844,777.060181 802.371643,780.681824 806.041992,781.870422 
	C809.024597,782.836365 810.892944,779.937134 812.431213,777.946838 
	C816.653320,772.483948 820.017822,766.461121 822.462402,759.985840 
	C823.265259,757.859131 824.245117,755.958984 826.000000,754.500000 
"/>
<path fill="none" opacity="1.000000" stroke="#000000" stroke-linecap="round" stroke-linejoin="round" stroke-width="5.000000"
	d="
M224.500000,344.500000 
	C228.942169,355.772858 234.775055,366.710571 242.392014,375.666595 
	C251.054474,385.851929 262.434235,393.631042 276.984131,395.151917 
	C288.009216,396.304291 298.730377,395.380219 309.500000,393.500000 
"/>
<path fill="none" opacity="1.000000" stroke="#000000" stroke-linecap="round" stroke-linejoin="round" stroke-width="4.000000"
	d="
M1111.000000,133.000000 
	C1116.578247,133.057816 1117.499390,133.598465 1117.948608,139.004272 
	C1119.120361,153.107544 1117.030884,166.459930 1108.001221,178.000961 
	C1105.068359,181.749435 1101.204712,183.337540 1096.500000,183.000000 
"/>
<path fill="none" opacity="1.000000" stroke="#000000" stroke-linecap="round" stroke-linejoin="round" stroke-width="4.000000"
	d="
M288.000000,134.500000 
	C280.442169,134.574905 277.966766,137.543411 277.420502,145.494537 
	C276.619049,157.159683 280.546570,167.159912 286.980804,176.513199 
	C289.343231,179.947403 292.327209,182.569885 296.507996,182.898438 
	C299.487793,183.132599 299.401886,184.819977 300.111694,186.963013 
	C303.113983,196.027924 300.860016,205.365829 301.986420,214.501678 
	C302.725067,220.492798 303.333344,226.500000 304.000000,232.500000 
"/>
<path fill="none" opacity="1.000000" stroke="#000000" stroke-linecap="round" stroke-linejoin="round" stroke-width="4.000000"
	d="
M327.500000,1236.500000 
	C326.666687,1240.333374 325.372681,1244.136719 325.121277,1248.007935 
	C324.833099,1252.444824 323.122253,1255.600830 319.512421,1258.018555 
	C314.020111,1261.697021 308.230316,1264.867432 302.909912,1268.880615 
	C296.412140,1273.781738 285.702087,1272.613892 279.410736,1268.125122 
	C275.660309,1265.449341 276.850891,1262.216553 277.690552,1259.560181 
	C278.806244,1256.030884 282.421692,1254.338013 285.961273,1255.165527 
	C288.795410,1255.828125 291.629211,1256.794067 294.500000,1257.500000 
"/>
<path fill="none" opacity="1.000000" stroke="#000000" stroke-linecap="round" stroke-linejoin="round" stroke-width="4.000000"
	d="
M362.000000,1236.500000 
	C363.555725,1239.711060 362.290192,1243.160767 362.858917,1246.523804 
	C363.822845,1252.223999 366.473419,1256.400757 371.518738,1258.963135 
	C375.532043,1261.001465 379.094238,1263.606201 382.508514,1266.489868 
	C389.055817,1272.020142 396.379944,1273.446167 404.502686,1270.507446 
	C407.853088,1269.295288 411.671509,1267.830933 411.781677,1263.993774 
	C411.884033,1260.427856 409.818298,1257.718628 406.208130,1255.201538 
	C400.308899,1251.088135 394.536774,1246.349609 390.000000,1240.500000 
"/>
<path fill="none" opacity="1.000000" stroke="#000000" stroke-linecap="round" stroke-linejoin="round" stroke-width="4.000000"
	d="
M1109.500000,1064.500000 
	C1106.418457,1072.745483 1105.412231,1081.478516 1103.460938,1089.991089 
	C1101.495361,1098.565796 1101.832153,1107.395630 1100.250000,1116.000000 
"/>
<path fill="none" opacity="1.000000" stroke="#000000" stroke-linecap="round" stroke-linejoin="round" stroke-width="4.000000"
	d="
M996.500000,1065.500000 
	C1001.210022,1082.028564 1003.430603,1099.000854 1005.500000,1116.000000 
"/>
<path fill="none" opacity="1.000000" stroke="#000000" stroke-linecap="round" stroke-linejoin="round" stroke-width="4.000000"
	d="
M1073.000000,1267.500000 
	C1070.458862,1277.198242 1075.297241,1284.878296 1080.081665,1292.448364 
	C1081.555786,1294.780762 1083.903809,1296.609253 1086.022949,1298.473877 
	C1089.026123,1301.116333 1093.020752,1301.235474 1095.999878,1298.999878 
	C1098.804810,1296.895020 1100.334961,1292.158691 1098.966309,1289.014648 
	C1097.440186,1285.508423 1095.710205,1282.063354 1091.500000,1281.000000 
"/>
<path fill="none" opacity="1.000000" stroke="#000000" stroke-linecap="round" stroke-linejoin="round" stroke-width="5.000000"
	d="
M344.000000,453.500000 
	C344.000000,469.833344 344.000000,486.166656 344.000000,502.500000 
"/>
<path fill="none" opacity="1.000000" stroke="#000000" stroke-linecap="round" stroke-linejoin="round" stroke-width="4.000000"
	d="
M1032.250000,1268.000000 
	C1034.635864,1277.865356 1030.375122,1285.875732 1024.947754,1293.462646 
	C1023.459534,1295.542847 1021.520020,1297.421021 1019.453857,1298.937134 
	C1016.729126,1300.936401 1013.525330,1301.363525 1010.523560,1299.462769 
	C1007.741150,1297.701050 1005.181458,1291.302490 1006.585754,1289.053589 
	C1008.388123,1286.166870 1009.686157,1282.618164 1013.500000,1281.500000 
"/>
<path fill="none" opacity="1.000000" stroke="#000000" stroke-linecap="round" stroke-linejoin="round" stroke-width="4.000000"
	d="
M1069.000000,1134.500000 
	C1073.025269,1131.611694 1074.039307,1126.661377 1076.821045,1122.868652 
	C1082.622437,1114.959106 1090.306274,1114.173218 1098.450073,1116.200562 
	C1103.871948,1117.550171 1107.184937,1122.215942 1109.584839,1127.461182 
	C1112.236084,1133.255737 1112.629395,1139.411011 1113.447998,1145.506958 
	C1114.047363,1149.971313 1114.308594,1154.495972 1114.437622,1159.001831 
	C1114.498535,1161.122681 1115.762451,1162.224609 1117.000000,1163.500000 
"/>
<path fill="none" opacity="1.000000" stroke="#000000" stroke-linecap="round" stroke-linejoin="round" stroke-width="4.000000"
	d="
M362.500000,891.500000 
	C360.585632,906.703247 365.108765,920.278687 373.002869,932.998230 
	C374.148682,934.844482 375.333344,936.666687 376.500000,938.500000 
"/>
<path fill="none" opacity="1.000000" stroke="#000000" stroke-linecap="round" stroke-linejoin="round" stroke-width="4.000000"
	d="
M1036.500000,1134.500000 
	C1033.647949,1131.677856 1032.718994,1127.709961 1030.520874,1124.485718 
	C1026.291260,1118.281616 1020.700012,1114.781860 1012.999634,1114.986816 
	C1003.841187,1115.230957 998.848999,1120.859131 995.533813,1128.514648 
	C993.478455,1133.260986 992.829041,1138.367432 992.503479,1143.500244 
	C992.154785,1148.999268 991.882263,1154.503906 991.439270,1159.995117 
	C991.382568,1160.697510 990.499939,1161.333252 989.999939,1162.000000 
"/>
<path fill="none" opacity="1.000000" stroke="#000000" stroke-linecap="round" stroke-linejoin="round" stroke-width="4.000000"
	d="
M326.500000,891.500000 
	C328.059357,902.353638 325.985291,912.659302 321.448273,922.476074 
	C319.074799,927.611572 316.166687,932.500000 313.500000,937.500000 
"/>
<path fill="none" opacity="1.000000" stroke="#000000" stroke-linecap="round" stroke-linejoin="round" stroke-width="5.000000"
	d="
M1280.000000,756.000000 
	C1283.755127,758.280273 1284.069702,762.638184 1285.939453,766.033325 
	C1289.145508,771.854370 1291.715088,778.069336 1297.357300,782.046265 
	C1303.288086,780.122437 1302.866333,779.206482 1301.972046,772.503723 
	C1300.082520,758.339539 1294.203857,745.247925 1290.750000,731.500000 
"/>
<path fill="none" opacity="1.000000" stroke="#000000" stroke-linecap="round" stroke-linejoin="round" stroke-width="4.000000"
	d="
M1011.500000,521.500000 
	C1019.810730,529.871094 1024.530518,540.588440 1030.564819,550.460388 
	C1033.453735,555.186584 1035.174561,560.685364 1039.500000,564.500000 
"/>
<path fill="none" opacity="1.000000" stroke="#000000" stroke-linecap="round" stroke-linejoin="round" stroke-width="3.000000"
	d="
M539.500000,676.500000 
	C542.791931,682.784790 545.598267,689.279724 549.911682,695.065857 
	C555.993408,703.224121 563.564941,708.753601 573.500000,711.000000 
"/>
<path fill="none" opacity="1.000000" stroke="#000000" stroke-linecap="round" stroke-linejoin="round" stroke-width="4.000000"
	d="
M1095.500000,521.500000 
	C1086.223511,530.099243 1080.952759,541.455688 1074.494141,551.996399 
	C1072.029785,556.018250 1069.500000,560.000000 1067.000000,564.000000 
"/>
<path fill="none" opacity="1.000000" stroke="#000000" stroke-linecap="round" stroke-linejoin="round" stroke-width="3.000000"
	d="
M149.500000,676.500000 
	C145.397964,685.904541 140.941330,695.095154 132.988968,701.987244 
	C127.903389,706.394897 122.230873,709.745239 115.500000,711.000000 
"/>
<path fill="none" opacity="1.000000" stroke="#000000" stroke-linecap="round" stroke-linejoin="round" stroke-width="4.000000"
	d="
M1078.500000,1073.500000 
	C1080.958496,1085.572510 1082.468872,1097.787598 1084.008423,1109.998901 
	C1084.260010,1111.994507 1082.380737,1114.162720 1084.500000,1116.000000 
"/>
<path fill="none" opacity="1.000000" stroke="#000000" stroke-linecap="round" stroke-linejoin="round" stroke-width="4.000000"
	d="
M1026.500000,1074.500000 
	C1024.702271,1087.285034 1022.610657,1100.040771 1022.521729,1113.000122 
	C1022.513733,1114.161865 1022.250000,1115.138916 1021.500000,1116.000000 
"/>
<path fill="none" opacity="1.000000" stroke="#000000" stroke-linecap="round" stroke-linejoin="round" stroke-width="4.000000"
	d="
M111.500000,730.500000 
	C111.500000,730.833313 111.598206,731.204712 111.485916,731.494568 
	C106.123032,745.336182 107.882202,760.654785 102.582817,774.531616 
	C101.971802,776.131592 102.148560,778.256348 102.587723,779.977600 
	C103.154358,782.198547 103.406639,784.666443 106.468590,785.602722 
	C109.454742,786.515808 110.423561,784.342529 111.986992,782.985046 
	C114.115784,781.136536 115.004631,778.539185 116.026794,776.010803 
	C116.704941,774.333374 117.331116,772.554077 119.000000,771.500000 
"/>
<path fill="none" opacity="1.000000" stroke="#000000" stroke-linecap="round" stroke-linejoin="round" stroke-width="5.000000"
	d="
M1095.500000,167.500000 
	C1093.921387,171.610184 1094.975586,175.963974 1095.308472,179.974396 
	C1095.658569,184.192932 1095.709595,188.431305 1095.329956,192.484085 
	C1094.447876,201.905228 1095.878662,210.947632 1097.970459,220.006805 
	C1098.189697,220.956192 1098.000000,222.000000 1098.000000,223.000000 
"/>
<path fill="none" opacity="1.000000" stroke="#000000" stroke-linecap="round" stroke-linejoin="round" stroke-width="8.000000"
	d="
M814.250000,731.000000 
	C810.727966,743.623657 808.086121,756.523071 802.500000,768.500000 
"/>
<path fill="none" opacity="1.000000" stroke="#000000" stroke-linecap="round" stroke-linejoin="round" stroke-width="4.000000"
	d="
M551.000000,766.500000 
	C555.093933,769.456055 554.528259,774.898010 557.415710,778.566345 
	C558.423767,779.846924 558.772400,781.678833 559.969543,783.027039 
	C561.482483,784.730713 563.231628,786.318420 565.458923,785.400269 
	C567.812805,784.429993 568.408630,782.041626 568.550781,779.502869 
	C568.720459,776.471619 566.341858,772.973633 569.999756,770.500122 
	C572.615784,772.539001 573.447144,775.630432 574.381165,778.538147 
	C574.673523,779.447937 575.179810,780.211243 575.572083,780.962341 
	C577.097778,783.883850 579.593994,786.174500 582.969055,785.370239 
	C586.560486,784.514404 586.670288,781.278015 586.558228,777.997986 
	C586.231567,768.436096 581.768799,759.842773 580.342529,750.524109 
	C579.922668,747.780701 578.532410,745.058044 580.099854,742.562744 
	C581.282043,740.680786 579.868652,739.551941 579.372314,738.564148 
	C577.904053,735.642212 577.274475,732.698242 577.500000,729.500000 
"/>
<path fill="none" opacity="1.000000" stroke="#000000" stroke-linecap="round" stroke-linejoin="round" stroke-width="4.000000"
	d="
M1017.500000,843.500000 
	C1018.158264,851.168335 1020.899719,858.430542 1021.939636,866.008301 
	C1022.596741,870.797180 1022.666687,875.666687 1023.000061,880.500000 
"/>
<path fill="none" opacity="1.000000" stroke="#000000" stroke-linecap="round" stroke-linejoin="round" stroke-width="4.000000"
	d="
M1030.500000,435.500031 
	C1026.000000,441.666687 1021.312805,447.707245 1017.051697,454.034821 
	C1012.621460,460.613586 1007.248962,466.195099 1001.000000,471.000000 
"/>
<path fill="none" opacity="1.000000" stroke="#000000" stroke-linecap="round" stroke-linejoin="round" stroke-width="4.000000"
	d="
M1089.500000,844.500000 
	C1085.890747,855.386780 1083.769287,866.564941 1083.032227,878.002075 
	C1082.958008,879.153259 1083.333252,880.333313 1083.500000,881.500000 
"/>
<path fill="none" opacity="1.000000" stroke="#000000" stroke-linecap="round" stroke-linejoin="round" stroke-width="4.000000"
	d="
M303.000000,242.500000 
	C303.000000,239.324554 303.000000,236.149124 303.000000,232.973679 
	C303.576294,232.915115 304.152557,232.856552 304.728851,232.798004 
	C309.407349,244.524368 312.127960,256.572571 309.500000,269.500000 
"/>
<path fill="none" opacity="1.000000" stroke="#000000" stroke-linecap="round" stroke-linejoin="round" stroke-width="4.000000"
	d="
M1076.000000,436.000000 
	C1082.011719,441.342255 1085.415161,448.629913 1089.861816,455.095001 
	C1094.119019,461.284393 1099.180542,466.434875 1105.000000,471.000000 
"/>
<path fill="none" opacity="1.000000" stroke="#000000" stroke-linecap="round" stroke-linejoin="round" stroke-width="5.000000"
	d="
M386.000000,202.000000 
	C387.890656,208.833328 386.358307,215.647614 386.194000,222.504654 
	C385.970490,231.833054 380.672546,239.588211 379.509247,248.501205 
	C378.614990,255.353226 376.670044,262.243805 380.000000,269.000000 
"/>
<path fill="none" opacity="1.000000" stroke="#000000" stroke-linecap="round" stroke-linejoin="round" stroke-width="4.000000"
	d="
M1137.500000,594.500000 
	C1138.048096,606.426575 1133.632935,617.331299 1130.500000,628.500000 
"/>
<path fill="none" opacity="1.000000" stroke="#000000" stroke-linecap="round" stroke-linejoin="round" stroke-width="4.000000"
	d="
M968.000000,594.500000 
	C967.972534,603.172180 970.024719,611.462524 973.103088,619.460327 
	C974.138428,622.150146 973.874939,625.471375 976.500000,627.500000 
"/>
<path fill="none" opacity="1.000000" stroke="#000000" stroke-linecap="round" stroke-linejoin="round" stroke-width="3.000000"
	d="
M397.000000,153.000000 
	C399.631531,153.084061 402.210052,153.279556 402.996002,156.500977 
	C403.778229,159.707260 404.262329,162.833817 401.514709,165.515091 
	C398.965271,168.003021 396.612885,170.838638 391.834229,168.424133 
	C396.965179,163.759232 394.718170,157.417328 396.369629,151.960541 
	C397.815643,147.182739 401.251801,144.848114 404.712433,141.898819 
	C408.325714,146.786804 406.535309,151.804474 407.000000,156.500000 
"/>
<path fill="none" opacity="1.000000" stroke="#000000" stroke-linecap="round" stroke-linejoin="round" stroke-width="4.000000"
	d="
M297.500000,269.000000 
	C291.500000,269.500000 285.372803,269.426300 279.548248,270.717621 
	C276.117432,271.478271 273.178009,270.325165 269.997864,270.441040 
	C260.837280,270.774780 251.666672,270.833344 242.500000,271.000000 
"/>
<path fill="none" opacity="1.000000" stroke="#000000" stroke-linecap="round" stroke-linejoin="round" stroke-width="3.000000"
	d="
M349.500000,394.500000 
	C342.611053,396.944366 338.566833,402.103546 335.416504,408.458618 
	C333.000488,413.332367 331.248840,418.399536 329.500000,423.500000 
"/>
<path fill="none" opacity="1.000000" stroke="#000000" stroke-linecap="round" stroke-linejoin="round" stroke-width="3.000000"
	d="
M292.000000,152.500000 
	C286.855621,154.705795 285.509064,156.909302 286.500031,161.500000 
	C287.592590,166.561386 290.928284,169.194839 295.996094,169.000656 
	C297.709442,167.687317 295.760590,166.877426 295.419312,166.032578 
	C294.167999,162.934464 293.746490,159.963516 293.753937,156.499466 
	C293.766876,150.466263 290.183472,145.763000 284.567291,142.186157 
	C280.933136,147.143311 282.696655,152.369659 283.500000,157.500000 
"/>
<path fill="none" opacity="1.000000" stroke="#000000" stroke-linecap="round" stroke-linejoin="round" stroke-width="8.000000"
	d="
M559.500000,737.750000 
	C563.027710,740.310303 562.434021,744.524231 563.415039,748.023804 
	C565.509338,755.494873 566.734314,763.204163 569.500000,770.500000 
"/>
<path fill="none" opacity="1.000000" stroke="#000000" stroke-linecap="round" stroke-linejoin="round" stroke-width="4.000000"
	d="
M448.500000,270.499969 
	C438.166656,270.333313 427.823700,269.819763 417.502960,270.106537 
	C408.779907,270.348877 400.171936,269.196075 391.500000,269.000000 
"/>
<path fill="none" opacity="1.000000" stroke="#000000" stroke-linecap="round" stroke-linejoin="round" stroke-width="3.000000"
	d="
M150.500000,716.500000 
	C141.821060,718.909180 133.179932,721.555298 124.000793,720.987122 
	C122.828308,720.914551 121.666672,720.666626 120.500008,720.500000 
"/>
<path fill="none" opacity="1.000000" stroke="#000000" stroke-linecap="round" stroke-linejoin="round" stroke-width="3.000000"
	d="
M568.500000,721.000000 
	C558.424072,722.634033 549.038330,719.263672 539.500000,717.000000 
"/>
<path fill="none" opacity="1.000000" stroke="#000000" stroke-linecap="round" stroke-linejoin="round" stroke-width="3.000000"
	d="
M1002.500000,843.500000 
	C1001.700989,853.216919 999.333313,862.541687 995.500000,871.500000 
"/>
<path fill="none" opacity="1.000000" stroke="#000000" stroke-linecap="round" stroke-linejoin="round" stroke-width="3.000000"
	d="
M1103.000000,843.500000 
	C1103.569824,853.193054 1106.812744,862.156982 1110.492676,871.003052 
	C1110.551880,871.145142 1110.500000,871.333313 1110.500000,871.500000 
"/>
<path fill="none" opacity="1.000000" stroke="#000000" stroke-linecap="round" stroke-linejoin="round" stroke-width="3.000000"
	d="
M1076.000000,1182.000000 
	C1080.446655,1190.635742 1082.971558,1199.795654 1083.500000,1209.500000 
"/>
<path fill="none" opacity="1.000000" stroke="#000000" stroke-linecap="round" stroke-linejoin="round" stroke-width="3.000000"
	d="
M413.500000,271.500000 
	C414.463104,273.305328 416.099213,273.832764 417.941284,274.634857 
	C425.645569,277.989532 433.452026,281.316528 439.500000,287.500000 
"/>
<path fill="none" opacity="1.000000" stroke="#000000" stroke-linecap="round" stroke-linejoin="round" stroke-width="3.000000"
	d="
M324.500000,251.500000 
	C328.106720,260.737396 331.661469,270.002808 338.500000,277.500000 
"/>
<path fill="none" opacity="1.000000" stroke="#000000" stroke-linecap="round" stroke-linejoin="round" stroke-width="3.000000"
	d="
M283.500000,1241.500000 
	C276.651459,1246.074341 269.497101,1250.339722 265.575531,1258.038452 
	C265.239349,1258.698364 264.627319,1259.429688 264.582001,1260.006470 
	C264.388245,1262.473877 264.645355,1265.026001 260.999939,1265.013672 
	C258.173584,1265.004272 255.864883,1264.158447 254.499405,1261.500366 
	C253.009842,1258.600586 254.428467,1255.951172 256.102844,1254.092651 
	C259.245728,1250.604126 262.999969,1247.666626 266.499969,1244.500000 
"/>
<path fill="none" opacity="1.000000" stroke="#000000" stroke-linecap="round" stroke-linejoin="round" stroke-width="3.000000"
	d="
M406.500000,1241.500000 
	C415.316589,1247.411011 423.614563,1253.752441 426.000000,1265.000000 
"/>
<path fill="none" opacity="1.000000" stroke="#000000" stroke-linecap="round" stroke-linejoin="round" stroke-width="3.000000"
	d="
M275.000000,272.000000 
	C271.980255,275.606110 267.059540,275.773712 263.452728,278.435944 
	C259.218658,281.561218 253.920410,283.181335 250.500000,287.500000 
"/>
<path fill="none" opacity="1.000000" stroke="#000000" stroke-linecap="round" stroke-linejoin="round" stroke-width="4.000000"
	d="
M913.000000,502.500000 
	C913.127441,504.300659 911.490479,504.851685 910.462524,505.433807 
	C902.310730,510.049744 896.924683,516.927673 893.500000,525.500000 
"/>
<path fill="none" opacity="1.000000" stroke="#000000" stroke-linecap="round" stroke-linejoin="round" stroke-width="4.000000"
	d="
M1192.500000,503.000000 
	C1200.216553,508.480499 1207.564331,514.327454 1211.973022,523.013733 
	C1212.343262,523.743652 1212.333252,524.666687 1212.500000,525.500000 
"/>
<path fill="none" opacity="1.000000" stroke="#000000" stroke-linecap="round" stroke-linejoin="round" stroke-width="3.000000"
	d="
M409.000000,897.500000 
	C407.204010,905.720032 405.434937,913.948425 401.500000,921.500000 
"/>
<path fill="none" opacity="1.000000" stroke="#000000" stroke-linecap="round" stroke-linejoin="round" stroke-width="3.000000"
	d="
M280.000000,898.500000 
	C281.801025,906.718445 283.642059,914.924377 287.500000,922.500000 
"/>
<path fill="none" opacity="1.000000" stroke="#000000" stroke-linecap="round" stroke-linejoin="round" stroke-width="3.000000"
	d="
M364.500000,253.500000 
	C361.725281,261.805939 358.642212,269.951019 352.500000,276.500000 
"/>
<path fill="none" opacity="1.000000" stroke="#000000" stroke-linecap="round" stroke-linejoin="round" stroke-width="3.000000"
	d="
M430.999969,569.000000 
	C430.833313,569.833313 430.954041,570.948914 430.455597,571.456421 
	C425.313293,576.692322 420.071289,581.825562 415.950012,587.966431 
	C415.665894,588.389832 414.666656,588.333313 414.000000,588.500000 
"/>
<path fill="none" opacity="1.000000" stroke="#000000" stroke-linecap="round" stroke-linejoin="round" stroke-width="3.000000"
	d="
M461.000000,479.000000 
	C466.981384,484.788239 471.536346,491.481018 474.000000,499.500000 
"/>
<path fill="none" opacity="1.000000" stroke="#000000" stroke-linecap="round" stroke-linejoin="round" stroke-width="3.000000"
	d="
M228.500000,478.500000 
	C223.804886,483.675995 218.894592,488.669830 216.409454,495.466888 
	C216.011017,496.556671 216.245056,497.513062 216.000000,498.500000 
"/>
<path fill="none" opacity="1.000000" stroke="#000000" stroke-linecap="round" stroke-linejoin="round" stroke-width="5.000000"
	d="
M1131.250000,1250.000000 
	C1131.976929,1255.422729 1133.509277,1260.841797 1130.095825,1266.062622 
	C1129.397705,1267.130493 1128.621704,1267.323242 1127.750000,1267.750000 
"/>
<path fill="none" opacity="1.000000" stroke="#000000" stroke-linecap="round" stroke-linejoin="round" stroke-width="3.000000"
	d="
M334.500000,530.500000 
	C340.261719,535.122314 346.234497,535.945740 352.500000,531.500000 
"/>
<path fill="none" opacity="1.000000" stroke="#000000" stroke-linecap="round" stroke-linejoin="round" stroke-width="4.000000"
	d="
M327.500000,727.000000 
	C328.166656,727.166687 328.866730,727.252747 329.494720,727.512756 
	C334.716827,729.674255 339.923065,733.301697 345.466492,732.694214 
	C350.953125,732.092834 356.166656,729.000000 361.500000,727.000000 
"/>
<path fill="none" opacity="1.000000" stroke="#000000" stroke-linecap="round" stroke-linejoin="round" stroke-width="3.000000"
	d="
M1010.500000,166.500000 
	C1010.283813,171.831787 1013.293457,177.264374 1010.000000,182.500000 
"/>
<path fill="none" opacity="1.000000" stroke="#000000" stroke-linecap="round" stroke-linejoin="round" stroke-width="3.000000"
	d="
M352.000000,525.000000 
	C345.245239,521.221863 341.392975,521.594666 336.500000,526.500000 
"/>
<path fill="none" opacity="1.000000" stroke="#000000" stroke-linecap="round" stroke-linejoin="round" stroke-width="3.000000"
	d="
M299.000000,1240.500000 
	C297.457245,1244.064087 294.306580,1246.131958 291.486237,1248.483521 
	C289.316315,1250.292847 286.634979,1251.655151 286.500000,1255.000000 
"/>
<path fill="none" opacity="1.000000" stroke="#000000" stroke-linecap="round" stroke-linejoin="round" stroke-width="4.000000"
	d="
M423.500000,1245.500000 
	C427.590485,1248.409546 431.733551,1251.192383 434.049438,1255.976074 
	C435.645386,1259.272705 435.420288,1261.913574 431.975983,1263.446045 
	C428.079926,1265.179565 424.074615,1266.769531 419.973633,1267.904663 
	C417.264801,1268.654419 414.426086,1267.933105 412.000000,1266.250000 
"/>
<path fill="none" opacity="1.000000" stroke="#000000" stroke-linecap="round" stroke-linejoin="round" stroke-width="5.000000"
	d="
M502.500000,472.000000 
	C497.763062,475.464844 494.585876,479.484406 495.359406,486.016663 
	C495.802460,489.758057 494.833374,493.666656 494.500031,497.500000 
"/>
<path fill="none" opacity="1.000000" stroke="#000000" stroke-linecap="round" stroke-linejoin="round" stroke-width="3.000000"
	d="
M500.500000,374.500000 
	C496.860077,375.675171 497.151581,379.711975 495.183350,382.148132 
	C494.627838,382.835693 493.663696,384.189209 493.500000,385.500000 
"/>
<path fill="none" opacity="1.000000" stroke="#000000" stroke-linecap="round" stroke-linejoin="round" stroke-width="4.000000"
	d="
M264.000000,1265.000000 
	C267.751678,1268.958130 272.015503,1268.648682 276.500000,1266.500000 
"/>
<path fill="none" opacity="1.000000" stroke="#000000" stroke-linecap="round" stroke-linejoin="round" stroke-width="4.000000"
	d="
M1102.500000,1274.000000 
	C1105.590088,1276.063843 1106.793457,1279.444214 1108.525757,1282.485352 
	C1111.318115,1287.387939 1114.963989,1287.072998 1118.079712,1282.049438 
	C1118.997314,1280.569946 1119.283569,1278.977905 1120.000000,1277.500000 
"/>
<path fill="none" opacity="1.000000" stroke="#000000" stroke-linecap="round" stroke-linejoin="round" stroke-width="4.000000"
	d="
M1124.500000,1262.500000 
	C1125.000000,1263.666626 1125.292603,1264.991089 1126.037598,1265.971436 
	C1128.628784,1269.380981 1127.162598,1272.332886 1124.954346,1274.961670 
	C1122.280396,1278.144897 1120.244019,1277.917725 1118.016846,1274.489014 
	C1116.756958,1272.549561 1115.666748,1270.500000 1114.500000,1268.500000 
"/>
<path fill="none" opacity="1.000000" stroke="#000000" stroke-linecap="round" stroke-linejoin="round" stroke-width="3.000000"
	d="
M189.000000,374.000000 
	C192.196106,377.251465 193.470139,381.589355 195.500000,385.500000 
"/>
<path fill="none" opacity="1.000000" stroke="#000000" stroke-linecap="round" stroke-linejoin="round" stroke-width="4.000000"
	d="
M1002.000061,1274.500000 
	C999.500061,1278.166748 997.000061,1281.833374 994.500061,1285.500000 
"/>
<path fill="none" opacity="1.000000" stroke="#000000" stroke-linecap="round" stroke-linejoin="round" stroke-width="3.000000"
	d="
M922.500000,508.500000 
	C919.044739,510.550354 915.366333,510.964355 911.500000,510.000000 
"/>
<path fill="none" opacity="1.000000" stroke="#000000" stroke-linecap="round" stroke-linejoin="round" stroke-width="3.000000"
	d="
M1196.000000,508.000000 
	C1192.902222,511.315369 1189.125977,509.882202 1185.500000,509.500000 
"/>
<path fill="none" opacity="1.000000" stroke="#000000" stroke-linecap="round" stroke-linejoin="round" stroke-width="3.000000"
	d="
M404.500000,1256.000000 
	C401.977600,1258.915405 397.917114,1257.770020 395.045959,1259.573242 
	C393.755127,1260.383789 393.849213,1258.436523 393.000000,1259.000000 
	C393.000000,1258.166626 392.672546,1257.118408 393.054901,1256.536011 
	C395.038452,1253.514771 398.592041,1253.985474 401.500000,1253.000000 
"/>
<path fill="none" opacity="1.000000" stroke="#000000" stroke-linecap="round" stroke-linejoin="round" stroke-width="3.000000"
	d="
M992.000000,1266.500000 
	C991.037964,1269.891479 989.703125,1273.075806 987.000000,1275.500000 
"/>
<path fill="none" opacity="1.000000" stroke="#000000" stroke-linecap="round" stroke-linejoin="round" stroke-width="3.000000"
	d="
M340.500000,527.500000 
	C343.500000,527.500000 346.500000,527.500000 349.500000,527.500000 
"/>
<path fill="none" opacity="1.000000" stroke="#000000" stroke-linecap="round" stroke-linejoin="round" stroke-width="3.000000"
	d="
M385.000000,235.000000 
	C386.743988,237.613800 385.483002,240.757904 386.500000,243.500000 
"/>
<path fill="none" opacity="1.000000" stroke="#000000" stroke-linecap="round" stroke-linejoin="round" stroke-width="3.000000"
	d="
M258.500000,1244.500000 
	C256.769470,1246.872314 255.182541,1249.531738 251.500000,1248.000000 
"/>
<path fill="none" opacity="1.000000" stroke="#000000" stroke-linecap="round" stroke-linejoin="round" stroke-width="4.000000"
	d="
M1110.500000,1286.000000 
	C1108.120483,1290.019775 1105.094238,1292.681152 1100.000000,1291.000000 
"/>
<path fill="none" opacity="1.000000" stroke="#000000" stroke-linecap="round" stroke-linejoin="round" stroke-width="2.000000"
	d="
M430.500000,1245.500000 
	C432.532684,1246.143799 434.060089,1247.509399 435.500000,1249.000000 
"/>
<path fill="none" opacity="1.000000" stroke="#000000" stroke-linecap="round" stroke-linejoin="round" stroke-width="3.000000"
	d="
M269.500000,369.000000 
	C267.092102,369.807037 265.375427,371.391296 265.597382,373.991699 
	C265.725403,375.491669 266.217896,376.983948 268.449524,377.665283 
	C270.833282,378.393127 272.512238,377.840729 273.935455,376.434662 
	C275.024170,375.359039 275.873352,374.092224 275.140686,371.951843 
	C274.153687,369.068420 272.351013,368.859406 270.000000,369.000000 
"/>
<path fill="none" opacity="1.000000" stroke="#000000" stroke-linecap="round" stroke-linejoin="round" stroke-width="3.000000"
	d="
M417.500000,368.000000 
	C412.406097,370.993866 411.651337,373.560059 414.999969,376.500031 
	C417.588043,378.772156 420.519745,378.328979 422.516571,375.511749 
	C424.733368,372.384155 423.192963,370.372620 420.442871,369.126038 
	C419.661774,368.771942 419.001526,367.912872 418.000000,368.000000 
"/>
</svg>